<?xml version="1.0" standalone="no"?>
<!DOCTYPE svg PUBLIC "-//W3C//DTD SVG 1.1//EN" "http://www.w3.org/Graphics/SVG/1.1/DTD/svg11.dtd" >
<!--
2013-9-30: Created.
-->
<svg>
<metadata>
Created by iconfont
</metadata>
<defs>

<font id="iconfont" horiz-adv-x="1024" >
  <font-face
    font-family="iconfont"
    font-weight="500"
    font-stretch="normal"
    units-per-em="1024"
    ascent="896"
    descent="-128"
  />
    <missing-glyph />
    
    <glyph glyph-name="x" unicode="x" horiz-adv-x="1001"
d="M281 543q-27 -1 -53 -1h-83q-18 0 -36.5 -6t-32.5 -18.5t-23 -32t-9 -45.5v-76h912v41q0 16 -0.5 30t-0.5 18q0 13 -5 29t-17 29.5t-31.5 22.5t-49.5 9h-133v-97h-438v97zM955 310v-52q0 -23 0.5 -52t0.5 -58t-10.5 -47.5t-26 -30t-33 -16t-31.5 -4.5q-14 -1 -29.5 -0.5
t-29.5 0.5h-32l-45 128h-439l-44 -128h-29h-34q-20 0 -45 1q-25 0 -41 9.5t-25.5 23t-13.5 29.5t-4 30v167h911zM163 247q-12 0 -21 -8.5t-9 -21.5t9 -21.5t21 -8.5q13 0 22 8.5t9 21.5t-9 21.5t-22 8.5zM316 123q-8 -26 -14 -48q-5 -19 -10.5 -37t-7.5 -25t-3 -15t1 -14.5
t9.5 -10.5t21.5 -4h37h67h81h80h64h36q23 0 34 12t2 38q-5 13 -9.5 30.5t-9.5 34.5q-5 19 -11 39h-368zM336 498v228q0 11 2.5 23t10 21.5t20.5 15.5t34 6h188q31 0 51.5 -14.5t20.5 -52.5v-227h-327z" />
    

    
    <glyph glyph-name="check-circle" unicode="&#58902;" d="M512 892.15051822c-280.955259 0-508.700444-227.745185-508.700444-508.73836999 0-280.879407 227.745185-508.624593 508.700444-508.62459301 280.993185 0 508.73836999 227.745185 508.73836999 508.62459301C1020.700444 664.40533322 792.955259 892.15051822 512 892.15051822M430.610963 159.64918522000005l-223.838815 223.76296301 91.591111 81.38903699 132.247704-132.171852 295.063704 284.785778 91.553185-91.553185L430.610963 159.64918522000005z"  horiz-adv-x="1024" />

    
    <glyph glyph-name="chat-pink" unicode="&#58982;" d="M936.204421 422.565341c0-202.330148-189.920514-366.357945-424.204421-366.357945-40.033785 0-78.766948 4.78191-115.502617 13.726629 0 0-73.40073-91.390453-193.008852-90.855264 57.864896 82.089623 57.770751 147.948587 57.770751 147.948587-105.185644 66.677609-173.46268 174.21481-173.46268 295.53697 0 202.330148 189.901071 366.357945 424.204421 366.357945C746.283908 788.923286 936.204421 624.895489 936.204421 422.565341z"  horiz-adv-x="1024" />

    
    <glyph glyph-name="clear" unicode="&#58912;" d="M512 812C229.23273 812 0 582.76727 0 300c0-282.76727 229.23273-512 512-512s512 229.23273 512 512C1024.06396 582.76727 794.83123 812 512 812zM742.38401 138.820737c19.124047-19.124047 19.124047-50.0807 0-69.204747s-50.0807-19.124047-69.204747 0L511.74416 230.987133l-161.435103-161.371143c-19.124047-19.124047-50.0807-19.124047-69.204747 0-19.124047 19.124047-19.124047 50.0807 0 69.204747L442.603373 300.25584 281.16827 461.626983c-19.124047 19.124047-19.124047 50.0807 0 69.204747 19.124047 19.124047 50.0807 19.124047 69.204747 0L511.74416 369.396627l161.435103 161.435103c19.124047 19.124047 50.0807 19.124047 69.204747 0 19.124047-19.124047 19.124047-50.0807 0-69.204747L581.012867 300.25584 742.38401 138.820737z"  horiz-adv-x="1024" />

    
    <glyph glyph-name="add-icon" unicode="&#58884;" d="M885.649481 320.33342100000004l-311.375595 0 0-311.375595L449.72608 8.957825999999955l0 311.375595L138.350484 320.33342100000004 138.350484 444.882443l311.375595 0 0 311.375595 124.547806 0 0-311.375595 311.375595 0L885.649481 320.33342100000004 885.649481 320.33342100000004zM885.649481 320.33342100000004"  horiz-adv-x="1024" />

    
    <glyph glyph-name="women" unicode="&#59043;" d="M329.08174222 354.21752889000004C252.40462222 372.93169778000004 194.73294222 446.84174222 194.73294222 536.62606222c0 103.61969778 76.38584889 187.57859555 170.75768889 188.01550223L365.49063111 788.21148445 364.10709333 787.55612445c-66.26417778-4.22343111-121.96977778-30.29219555-167.1168-78.27911112-45.14702222-48.05973333-67.72053333-105.65859555-67.72053333-172.72376888 0-39.75850667 8.51968-76.82275555 25.48622222-111.19274667 16.96654222-34.36999111 40.41386667-63.56992 70.19633778-87.59978667C224.07850667 336.95971555000006 223.71441778 335.57617777999997 223.71441778 333.97418667c-64.58936889-30.58346667-117.01816889-76.09457778-157.14076445-136.53333334-40.19541333-60.43875555-61.09411555-127.57674667-62.76892444-201.34115555l0-4.95160889-1.23790222-3.71370667c0-3.78652445 1.16508445-7.20896 2.03889778-10.63139555l57.52604444 0c6.91768889 158.16021333 118.11043555 288.57685333 267.02279111 324.47601778L329.15456 354.21752889000004zM1019.904 1.1241244499999539c-2.54862222 73.69159111-24.32113778 140.53831111-65.24472889 200.61297777-40.99640889 60.00184889-94.29902222 104.49351111-159.54375111 133.47498667 30.58346667 23.95704889 54.61333333 53.66670222 71.94396445 88.83768889s25.99594667 72.67214222 25.99594666 112.43064889c0 70.41479111-24.75804445 130.48945778-74.34695111 180.224-49.80736 49.73454222-109.80920889 74.49258667-180.36963555 74.49258666-46.38492445 0-88.98332445-11.35957333-127.86801778-34.15153778C471.44049778 734.32632889 440.63857778 703.45159111 417.84661333 664.56689778S383.62225778 582.93816889 383.62225778 536.55324445c0-39.75850667 8.66531555-77.25966222 26.06876444-112.4306489 17.40344889-35.17098667 41.36049778-64.88064 72.0896-88.83768888-65.39036445-29.92810667-118.69297778-75.14794667-159.68938667-136.02360889-40.99640889-60.87566222-62.33201778-128.66901333-63.93400888-203.1616l0-4.95160889-1.31072-3.71370667c0-3.78652445 1.16508445-7.20896 2.03889778-10.63139555l57.52604444 0c-0.80099555 6.99050667-2.18453333 13.68974222-2.18453334 20.82588444 0 171.99559111 145.34428445 311.36881778 324.62165334 311.36881778 179.35018667 0 324.69447111-139.37322667 324.69447111-311.36881778 0-7.13614222-1.45635555-13.83537778-2.25735111-20.82588444l57.74449778 0c0.87381333 3.42243555 1.96608 6.84487111 1.96608 10.63139555l0 3.71370667C1020.99626667-5.647928890000003 1020.55936-2.298311109999986 1019.904 1.1241244499999539zM638.99420445 338.05198222c-54.97742222 0-101.94488889 19.44234667-140.82958223 58.32704C459.20711111 435.26371555 439.83758222 482.23118222 439.83758222 537.2086044499999c0 54.90460445 19.44234667 101.87207111 58.39985778 140.82958222 38.88469333 38.95751111 85.99779555 58.39985778 141.33930667 58.39985778 35.97198222 0 69.39534222-9.02940445 100.12444444-27.01539556 30.58346667-17.98599111 54.75896889-42.30712889 72.0896-72.96341334 17.62190222-30.65628445 26.43285333-63.93400889 26.43285334-99.97880888 0-54.46769778-19.6608-101.14389333-58.47267556-140.02858667C740.86627555 357.42151111 693.89880889 338.05198222 638.99420445 338.05198222z"  horiz-adv-x="1024" />

    
    <glyph glyph-name="my-task" unicode="&#58901;" d="M511.999388 875.164019c-277.005277 0-501.558743-224.564486-501.558743-501.585683 0-277.013849 224.553465-501.578336 501.558743-501.578336s501.559967 224.564486 501.559967 501.578336C1013.559355 650.6007569999999 789.004665 875.164019 511.999388 875.164019zM250.345263 648.068356L395.800372 648.068356l0-145.455109L250.345263 502.613247 250.345263 648.068356zM395.800372 99.09811200000001L250.345263 99.09811200000001l0 145.453884L395.800372 244.55199700000003 395.800372 99.09811200000001zM320.39408 328.11267l-9.178118-10.629228-71.285629 61.561354 22.554047 26.118757 46.265307-39.953897 86.437177 86.012253 24.345586-24.45947L320.39408 328.11267zM784.068442 145.94386399999996L448.585266 145.94386399999996l0 51.763606 335.483176 0L784.068442 145.94386399999996zM784.068442 354.74207L448.585266 354.74207l0 51.759933 335.483176 0L784.068442 354.74207zM784.068442 549.4589980000001L448.585266 549.4589980000001 448.585266 601.222604l335.483176 0L784.068442 549.4589980000001z"  horiz-adv-x="1024" />

    
    <glyph glyph-name="nvshengxuanzhong" unicode="&#58917;" d="M612.962924 548.648682C612.962924 548.648682 581.081254 550.45574 579.472112 515.17508 579.472112 515.17508 579.988414 483.439696 612.962924 481.572402 612.962924 481.572402 643.743149 482.355461 646.582812 515.17508 646.582812 515.17508 642.392158 547.030935 612.962924 548.648682L612.962924 548.648682ZM411.105916 548.648682C411.105916 548.648682 377.993726 546.06717 377.486028 515.17508 377.486028 515.17508 373.553526 483.439696 411.105916 481.572402 411.105916 481.572402 439.562781 478.999495 444.596729 515.17508 444.596729 515.17508 444.080426 544.83665 411.105916 548.648682L411.105916 548.648682ZM371.608787 204.386882C371.608787 204.386882 173.176584 109.912157 150.588357-127.999964L476.220247-127.999964 371.608787 204.386882 371.608787 204.386882ZM531.972296-127.999964 873.411643-127.999964C873.411643-127.999964 847.019988 116.297096 652.262138 204.386882L531.972296-127.999964 531.972296-127.999964ZM830.88554 107.399486C830.88554 107.399486 727.822986 281.969915 494.996443 278.424638 494.996443 278.424638 286.814731 283.329511 183.433791 93.98423L183.17564 539.940382C183.17564 539.940382 150.975584 858.20636 495.254594 895.999691 495.254594 895.999691 823.726147 898.064901 830.88554 564.318458L830.88554 107.399486 830.88554 107.399486ZM758.035279 570.376406C758.035279 570.376406 530.294313 550.128749 382.063909 664.541349 233.70443 778.687193 382.063909 664.541349 382.063909 664.541349L382.063909 664.541349C382.063909 664.541349 298.947836 580.960604 257.652254 569.15449 216.606217 557.288141 257.652254 569.15449 257.652254 569.15449 257.652254 569.15449 243.703485 349.493657 498.739635 317.895953 753.965095 286.169174 498.739635 317.895953 498.739635 317.895953 498.739635 317.895953 731.445708 300.806345 758.035279 567.545348 784.616244 834.404821 758.035279 567.545348 758.035279 567.545348M612.962924 548.648682C612.962924 548.648682 581.081254 547.745153 579.472112 515.17508 578.043675 482.475931 579.472112 515.17508 579.472112 515.17508 579.472112 515.17508 581.012414 484.222754 612.962924 481.572402 644.904829 478.930655 615.802587 481.830553 615.802587 481.830553 615.802587 481.830553 646.06651 487.69919 646.582812 515.17508 647.288425 542.521894 646.582812 515.17508 646.582812 515.17508 646.582812 515.17508 643.743149 548.003304 612.962924 548.648682 582.44085 549.483371 612.962924 546.06717 612.962924 546.06717M411.105916 548.648682C411.105916 548.648682 381.547607 549.027304 377.486028 515.17508 373.553526 481.254016 377.486028 515.17508 377.486028 515.17508 377.486028 515.17508 379.293087 479.644873 411.105916 481.641242 442.729435 483.568771 411.105916 481.641242 411.105916 481.641242L411.105916 481.641242C411.105916 481.641242 440.784696 479.705109 444.596729 515.24392 448.666912 550.645051 444.596729 515.24392 444.596729 515.24392 444.596729 515.24392 441.69683 548.003304 411.105916 548.648682 380.385927 549.414531 411.105916 548.648682 411.105916 548.648682L411.105916 548.648682Z"  horiz-adv-x="1024" />

    
    <glyph glyph-name="camera" unicode="&#58941;" d="M1228.8 716.8c0 0-176.2816 0-230.4 0-74.0096 0-103.04 153.6-179.2 153.6-50.6112 0-282.3424 0-332.8 0-51.2 0-76.8-153.6-153.6-153.6S102.4 716.8 102.4 716.8c-42.4192 0-76.8-34.3808-76.8-76.8l0-665.6c0-42.3936 34.3808-76.8 76.8-76.8l1126.4 0c42.4192 0 76.8 34.4064 76.8 76.8L1305.6 640C1305.6 682.4192 1271.2192 716.8 1228.8 716.8zM1254.4-25.600000000000023c0-14.1312-11.4688-25.6-25.6-25.6L102.4-51.200000000000045c-14.1056 0-25.6 11.4688-25.6 25.6L76.8 640c0 14.1056 11.4944 25.6 25.6 25.6l230.4 0c71.9104 0 109.824 65.9456 137.4976 114.0736C477.6704 792.5248 488.2432 810.9312 495.232 819.2L819.2 819.2c11.2128 0 35.5328-35.8656 48.5632-55.1424C897.536 720.1792 934.528 665.6 998.4 665.6l230.4 0c14.1312 0 25.6-11.4944 25.6-25.6L1254.4-25.600000000000023zM665.6 563.2c-127.232 0-230.4-103.1424-230.4-230.4 0-127.2576 103.168-230.4 230.4-230.4 127.2576 0 230.4 103.1424 230.4 230.4C896 460.0576 792.8576 563.2 665.6 563.2zM665.6 153.60000000000002c-98.816 0-179.2 80.4096-179.2 179.2 0 98.816 80.384 179.2 179.2 179.2 98.7904 0 179.2-80.384 179.2-179.2C844.8 234.00959999999998 764.3904 153.60000000000002 665.6 153.60000000000002z"  horiz-adv-x="1332" />

    
    <glyph glyph-name="internet-error" unicode="&#59182;" d="M511.734964 829.876c-246.515487 0-446.359001-199.938682-446.359001-446.573895 0-246.63726 199.843514-446.577988 446.359001-446.577988 246.51958 0 446.363094 199.938682 446.363094 446.577988C958.098058 629.937318 758.254543 829.876 511.734964 829.876zM815.998689 78.89306999999997c-39.523155-39.541575-85.539188-70.585615-136.778176-92.26845-53.036937-22.441105-109.388363-33.822316-167.485549-33.822316-58.094116 0-114.445542 11.381212-167.482479 33.822316-51.238988 21.682835-97.255021 52.724829-136.778176 92.26845-39.523155 39.541575-70.550823 85.579097-92.223425 136.843668-22.429849 53.06252-33.805944 109.440551-33.805944 167.56639 0 58.122769 11.375072 114.5008 33.805944 167.56332 21.673625 51.262524 52.701293 97.30107 92.223425 136.843668 39.523155 39.541575 85.539188 70.585615 136.778176 92.26845 53.036937 22.441105 109.388363 33.821293 167.482479 33.821293 58.099233 0 114.450658-11.381212 167.485549-33.821293 51.237965-21.682835 97.255021-52.726875 136.778176-92.26845 39.523155-39.541575 70.551846-85.580121 92.223425-136.843668 22.429849-53.06252 33.805944-109.440551 33.805944-167.56332 0-58.126862-11.375072-114.504894-33.805944-167.56639C886.550535 164.47319100000004 855.522867 118.43566899999996 815.998689 78.89306999999997zM383.079792 571.138144L227.198535 571.138144c-2.391467 0-4.329609-3.264347-4.329609-7.293103 0-4.027733 1.938142-7.296173 4.329609-7.296173l36.918841 0L264.117376 366.916926c0-2.936889 3.356444-5.319146 7.501858-5.319146 4.14132 0 7.497765 2.38328 7.497765 5.319146L279.116999 556.547845l59.997466 0L339.114464 366.916926c0-2.936889 3.356444-5.319146 7.501858-5.319146 4.14132 0 7.497765 2.38328 7.497765 5.319146L354.114087 556.547845l28.966729 0c2.391467 0 4.332678 3.264347 4.332678 7.296173C387.411447 567.8737980000001 385.471258 571.138144 383.079792 571.138144zM761.812579 571.138144L605.931323 571.138144c-2.391467 0-4.329609-3.264347-4.329609-7.293103 0-4.027733 1.938142-7.296173 4.329609-7.296173l36.918841 0L642.850164 366.916926c0-2.936889 3.356444-5.319146 7.501858-5.319146 4.14132 0 7.497765 2.38328 7.497765 5.319146L657.849786 556.547845l59.997466 0L717.847252 366.916926c0-2.936889 3.356444-5.319146 7.501858-5.319146 4.14132 0 7.497765 2.38328 7.497765 5.319146L732.846874 556.547845l28.966729 0c2.391467 0 4.332678 3.264347 4.332678 7.296173C766.144234 567.8737980000001 764.204046 571.138144 761.812579 571.138144zM581.12024 160.52834600000006c-4.754281-3.1262-9.219989-4.682649-13.375635-4.682649-4.16281 0-10.747785 2.341325-19.747763 7.030114-8.999978 4.682649-16.320711 7.030114-21.970384 7.030114s-11.525498-2.313695-17.621333-6.919597c-6.096858-4.605901-10.933003-6.919597-14.497179-6.919597-3.571339 0-9.406231 2.306532-17.511839 6.919597-8.105608 4.613064-14.979156 6.919597-20.62883 6.919597-5.64865 0-11.676947-2.196015-18.068518-6.589069-6.392594-4.38589-11.752672-6.582929-16.059767-6.582929-6.544043 0-14.049994 4.317329-22.527063 12.944823l0-17.633612c5.64865-5.949502 12.564154-8.930393 20.745487-8.930393s15.089673 2.162246 20.745487 6.472412c5.649674 4.317329 10.67206 6.472412 15.054881 6.472412 4.389984 0 9.997702-2.010797 16.83748-6.031367 8.477069-5.054109 15.688307-7.587815 21.639856-7.587815 5.938246 0 11.710716 2.27174 17.284665 6.810103 5.572926 4.544503 10.596336 6.810103 15.054881 6.810103 4.458545 0 10.485819-2.196015 18.068518-6.589069 7.582699-4.38589 15.839757-6.582929 24.76401-6.582929 7.135514 0 13.0799 1.638313 17.841344 4.909823 6.991228 4.909823 12.192693 7.367805 15.612583 7.367805 4.458545 0 10.933003-3.717671 19.411095-11.161201l0 17.186428c-6.991228 5.804193-13.307074 8.703219-18.962887 8.703219C597.551468 169.90592400000003 590.189803 166.779723 581.12024 160.52834600000006z"  horiz-adv-x="1024" />

    
    <glyph glyph-name="search" unicode="&#58899;" d="M937.024 70.528l-176.512 176.576c-2.624 2.624-5.568 4.608-8.32 6.784 38.208 58.688 60.544 128.512 60.544 203.776 0 206.784-167.552 374.4-374.4 374.4C231.616 832.064 64 664.448 64 457.664c0-206.784 167.68-374.4 374.4-374.4 75.264 0 145.216 22.4 203.904 60.608 2.176-2.816 4.096-5.696 6.72-8.256l176.512-176.576C840.96-56.32 861.056-64 881.216-64c20.16 0 40.32 7.68 55.744 23.04C967.68-10.176 967.68 39.744 937.024 70.528M438.336 201.536c-141.184 0-256.128 114.944-256.128 256.128 0 141.184 114.944 256.128 256.128 256.128 141.184 0 256.128-114.944 256.128-256.128C694.464 316.48 579.52 201.536 438.336 201.536"  horiz-adv-x="1024" />

    
    <glyph glyph-name="privacy-eye-big" unicode="&#59190;" d="M861.735 754.789c-284.257 0-463.051-181.163-562.348-283.288-30.858-31.704-31.468-96.427-6.826-122.646 113.32-120.284 290.137-290.333 569.173-290.333 336.511 0 504.301 189.758 577.216 273.752 33.162 38.173 26.102 103.135 3.571 126.556-76.954 79.851-288.953 295.958-580.788 295.958zM869.31 141.49300000000005c-149.304 0-270.333 118.447-270.333 264.57 0 146.116 121.028 264.567 270.333 264.567 149.298 0 270.334-118.452 270.334-264.567 0-146.123-121.042-264.57-270.334-264.57v0zM864.578 557.832c-81.942 0-148.341-66.388-148.341-148.314 0-81.927 66.398-148.316 148.341-148.316 81.891 0 148.29 66.388 148.29 148.316 0 81.926-66.399 148.314-148.29 148.314v0z"  horiz-adv-x="1707" />

    
    <glyph glyph-name="heart-grey" unicode="&#58915;" d="M984.916795 867.721912C729.400133 966.895409 593.543995 772.040139 591.248553 768.7613249999999 588.953112 772.082721 453.096972 966.937991 197.580312 867.721912-58.191399 768.420669-174.748824 276.470727 544.702097-112.38817200000005 565.106023-123.41691200000002 581.344147-126.653144 591.206044-126.99380099999996L591.206044-126.99380099999996 591.248553-126.99380099999996 591.291061-126.99380099999996 591.291061-126.99380099999996C601.152959-126.653144 617.348574-123.41691200000002 637.795008-112.38817200000005 1357.245931 276.470727 1240.688501 768.420669 984.916795 867.721912L984.916795 867.721912Z"  horiz-adv-x="1184" />

    
    <glyph glyph-name="tuijianjiantou" unicode="&#58889;" d="M78.769231 541.538462L787.692308 541.538462 551.384615 777.846154 551.384615 856.6153850000001 945.230769 462.769231 78.769231 462.769231 78.769231 541.538462ZM551.384615-88.61538499999995L551.384615-9.846153999999956 787.692308 226.46153800000002 78.769231 226.46153800000002 78.769231 305.230769 945.230769 305.230769 551.384615-88.61538499999995Z"  horiz-adv-x="1024" />

    
    <glyph glyph-name="delete" unicode="&#59259;" d="M603.534222 140.23111100000006c-16.867556 0-30.520889 13.624889-30.520889 30.464L573.013333 505.884444c0 16.839111 13.624889 30.464 30.520889 30.464s30.520889-13.624889 30.520889-30.464l0-335.189333C634.055111 153.856 620.401778 140.23111100000006 603.534222 140.23111100000006L603.534222 140.23111100000006 603.534222 140.23111100000006zM420.465778 140.23111100000006c-16.867556 0-30.520889 13.624889-30.520889 30.464L389.944889 505.884444c0 16.839111 13.624889 30.464 30.520889 30.464 16.867556 0 30.520889-13.624889 30.520889-30.464l0-335.189333C450.958222 153.856 437.333333 140.23111100000006 420.465778 140.23111100000006L420.465778 140.23111100000006 420.465778 140.23111100000006zM908.686222 658.232889l-152.576 0L756.110222 719.189333c0 50.403556-40.732444 91.420444-90.851556 91.420444L359.424 810.609778c-50.460444 0-91.534222-41.016889-91.534222-91.420444l0-60.956444L115.313778 658.232889c-16.867556 0-30.520889-13.624889-30.520889-30.464 0-16.839111 13.624889-30.464 30.520889-30.464l793.344 0c16.867556 0 30.520889 13.624889 30.520889 30.464C939.178667 644.608 925.553778 658.232889 908.686222 658.232889L908.686222 658.232889 908.686222 658.232889zM328.931556 719.189333c0 16.782222 13.710222 30.464 30.520889 30.464l305.834667 0c16.725333 0 29.809778-13.368889 29.809778-30.464l0-60.956444L328.931556 658.232889 328.931556 719.189333 328.931556 719.189333 328.931556 719.189333zM725.731556-42.58133299999997L298.467556-42.58133299999997c-50.460444 0-91.534222 41.016889-91.534222 91.420444L206.933333 506.339556c0 16.810667 13.681778 30.464 30.520889 30.464 16.839111 0 30.520889-13.653333 30.520889-30.464l0-457.528889c0-16.810667 13.710222-30.464 30.520889-30.464l427.264 0c16.839111 0 30.520889 13.653333 30.520889 30.464L756.280889 505.088c0 16.810667 13.653333 30.464 30.520889 30.464 16.867556 0 30.520889-13.653333 30.520889-30.464l0-456.277333C817.265778-1.5928890000000138 776.192-42.58133299999997 725.731556-42.58133299999997L725.731556-42.58133299999997 725.731556-42.58133299999997zM725.731556-42.58133299999997"  horiz-adv-x="1024" />

    
    <glyph glyph-name="more-small" unicode="&#58905;" d="M512 640.737292m-87.020936 0a85.039 85.039 0 1 1 174.041872 0 85.039 85.039 0 1 1-174.041872 0ZM512 384.207731m-87.020936 0a85.039 85.039 0 1 1 174.041872 0 85.039 85.039 0 1 1-174.041872 0ZM512 130.42779399999995m-87.020936 0a85.039 85.039 0 1 1 174.041872 0 85.039 85.039 0 1 1-174.041872 0Z"  horiz-adv-x="1024" />

    
    <glyph glyph-name="yituijian" unicode="&#58890;" d="M797.102317 833.415616l-144.009881 0 0-433.073416 144.009881 0L797.102317 833.415616zM364.763634 833.415616L220.427318 833.415616l0-433.073416 144.335293 0L364.762611 833.415616zM869.105211 362.341724L597.952604 367.837902l-48.821939 140.700509 31.647791 0L580.778456 833.415616 436.746062 833.415616l0-324.877205 31.81459 0L419.902442 367.837902l-271.482111-5.496178 216.34228-164.060543-78.809927-260.22779 222.823901 155.279552 222.819808-155.279552-78.504982 260.22779L869.105211 362.341724z"  horiz-adv-x="1024" />

    
    <glyph glyph-name="heart-empty" unicode="&#59733;" d="M512-55.688535c-10.91337 0-21.830353 2.572102-31.580498 7.44898-0.552713 0.270938-1.499189 0.718888-2.806915 1.336626-89.333578 42.439681-177.428067 98.87781-248.059719 158.928441C165.918634 166.12274000000002 115.238834 223.78912000000003 78.933183 283.41347599999995 33.101362 358.679969 9.862132 437.504777 9.862132 517.698723c0 168.725549 137.275101 305.986199 306.004262 305.986199 71.993565 0 141.483666-25.547619 196.126381-71.169915 54.646328 45.622296 124.136428 71.169915 196.137219 71.169915 168.732774 0 306.007874-137.260651 306.007874-305.986199 0-80.204784-23.250067-159.040429-69.092726-234.317759-36.316489-59.627969-87.003514-117.301573-150.652198-171.402413-70.642489-60.050631-158.729754-116.481535-248.030819-158.888704-1.296888-0.617738-2.239752-1.062076-2.796077-1.336626C533.823128-53.11643300000003 522.906145-55.688535 512-55.688535L512-55.688535zM315.866394 741.258449c-123.280265 0-223.574176-100.286686-223.574176-223.559726 0-268.484809 319.883497-442.119749 419.707782-489.678346 99.849573 47.565822 419.707782 221.164637 419.707782 489.678346 0 123.27304-100.293911 223.559726-223.577789 223.559726-62.991209 0-123.34529-26.757807-165.589896-73.413279l-30.550935-33.744387-30.547322 33.744387C439.200847 714.49703 378.850377 741.258449 315.866394 741.258449L315.866394 741.258449zM315.866394 741.258449"  horiz-adv-x="1024" />

    
    <glyph glyph-name="short-search" unicode="&#58925;" d="M937.067069 18.728805999999963L763.965615 191.831282c55.744605 67.818595 89.25072 154.574494 89.25072 249.012354 0 216.562291-176.179558 392.749012-392.742872 392.749012S67.725474 657.405927 67.725474 440.843636s176.185698-392.742872 392.749012-392.742872c94.437859 0 181.193759 33.506115 249.012354 89.25072l173.101453-173.101453c7.52437-7.52437 17.381879-11.287067 27.239388-11.287067s19.715017 3.762697 27.239388 11.287067C952.116833-20.713508000000047 952.116833 3.6923450000000457 937.067069 18.728805999999963zM144.778384 440.843636c0 174.072571 141.622508 315.695079 315.695079 315.695079S776.163425 614.916207 776.163425 440.843636 634.547057 125.15469700000006 460.474486 125.15469700000006 144.778384 266.771065 144.778384 440.843636z"  horiz-adv-x="1024" />

    
    <glyph glyph-name="gantanhao" unicode="&#59016;" d="M512.002558 831.75479c-247.292176 0-447.75786-200.464661-447.75786-447.756837 0-247.287059 200.464661-447.752744 447.75786-447.752744 247.286036 0 447.75172 200.464661 447.75172 447.752744C959.754279 631.289106 759.288594 831.75479 512.002558 831.75479zM512.010745 160.12414c-20.602224 0-37.319977 16.718777-37.319977 37.323047 0 20.597107 16.717753 37.319977 37.319977 37.319977 20.60427 0 37.297464-16.72287 37.297464-37.319977C549.308209 176.84189300000003 532.613992 160.12414 512.010745 160.12414zM549.308209 328.030267c0-20.600177-16.693194-37.293371-37.297464-37.293371-20.602224 0-37.319977 16.693194-37.319977 37.293371L474.690768 570.5794189999999c0 20.605294 16.717753 37.297464 37.319977 37.297464 20.60427 0 37.297464-16.693194 37.297464-37.297464L549.308209 328.030267z"  horiz-adv-x="1024" />

    
    <glyph glyph-name="yonghufangkeshu" unicode="&#59309;" d="M520.53333333 699.73333333C464.07679999 699.73333333 418.13333333 653.78986666 418.13333333 597.33333333S464.07679999 494.93333333 520.53333333 494.93333333 622.93333333 540.87679999 622.93333333 597.33333333 576.98986666 699.73333333 520.53333333 699.73333333zM520.53333333 904.53333333C237.70453333 904.53333333 8.53333333 675.36213333 8.53333333 392.53333333S237.70453333-119.46666667 520.53333333-119.46666667 1032.53333333 109.70453333 1032.53333333 392.53333333 803.36213333 904.53333333 520.53333333 904.53333333zM793.59999999 153.59999999000001c-18.8416 0-34.13333333 15.29173333-34.13333333 34.13333334C759.46666666 319.48799999000005 652.28799999 426.66666666 520.53333333 426.66666666S281.59999999 319.48799999000005 281.59999999 187.73333333000005C281.59999999 168.89173332999997 266.30826666 153.59999999000001 247.46666666 153.59999999000001S213.33333333 168.89173332999997 213.33333333 187.73333333000005c0 128.68266667 79.6672 238.72853333 192.1024 284.39893333C371.50719999 503.33013333 349.86666666 547.63519999 349.86666666 597.33333333 349.86666666 691.47306666 426.39359999 767.99999999 520.53333333 767.99999999S691.19999999 691.47306666 691.19999999 597.33333333c0-49.69813333-21.64053333-94.0032-55.56906666-125.20106667C748.06613333 426.46186666 827.73333333 316.41599999000005 827.73333333 187.73333333000005 827.73333333 168.89173332999997 812.44159999 153.59999999000001 793.59999999 153.59999999000001z"  horiz-adv-x="1024" />

    
    <glyph glyph-name="gantanhao2" unicode="&#59380;" d="M512 832C264.32 832 64 631.6800000000001 64 384s200.32-448 448-448 448 200.32 448 448S759.68 832 512 832zM512 128c-35.2 0-64 28.8-64 64 0 35.2 28.8 64 64 64 35.2 0 64-28.8 64-64C576 156.79999999999995 547.2 128 512 128zM576 384c0-35.2-28.8-64-64-64C476.8 320 448 348.79999999999995 448 384L448 576c0 35.2 28.8 64 64 64 35.2 0 64-28.8 64-64L576 384z"  horiz-adv-x="1024" />

    
    <glyph glyph-name="weirenzheng" unicode="&#58981;" d="M1025 176.971 0 176.971 0 589.825l1025 0L1025 176.971zM14.236 191.207l996.528 0L1010.764 575.589 14.236 575.589 14.236 191.207zM410.804 317.319c-3.635-4.421-7.264-9.217-10.9-14.403-34.193 17.058-60.469 39.121-78.827 66.176l0-81.357-15.181 0 0 81.163c-19.721-26.151-46.066-48.923-79.022-68.317-2.468 3.503-5.971 7.841-10.51 13.041 35.229 18.49 63.062 40.741 83.498 66.76l-80.384 0 0 14.403 86.418 0 0 36.591-74.934 0 0 14.403 74.934 0L305.896 479.06l15.181 0 0-33.282 75.713 0 0-14.403-75.713 0 0-36.591 86.418 0 0-14.403-80.968 0C347.415 352.486 375.512 331.458 410.804 317.319zM491.771 364.226c0.779-5.707 1.814-10.962 3.114-15.765-13.492-10.385-26.408-21.09-38.732-32.115-3.503-3.253-6.485-6.618-8.953-10.121l-11.483 12.067c4.15 4.282 6.228 9.982 6.228 17.128l0 65.592-26.081 0 0 14.014 41.262 0 0-79.411C466.726 343.261 478.279 352.805 491.771 364.226zM445.059 475.362c12.457-12.589 23.419-24.072 32.893-34.45l-13.43-11.094c-9.085 11.421-19.401 23.356-30.947 35.813L445.059 475.362zM531.088 476.919l15.765 0c-0.125-17.065-0.348-33.769-0.681-50.118 7.146-59.231 28.458-99.361 63.937-120.381-4.671-5.2-8.884-10.19-12.651-14.987-27.694 19.463-46.545 50.605-56.541 93.424-7.132-39.191-27.082-71.5-59.85-96.928-2.982 3.629-6.75 7.785-11.289 12.457 40.227 28.931 60.476 71.431 60.726 127.486C530.893 442.407 531.088 458.756 531.088 476.919zM676.285 361.112c0.514-4.539 1.752-10.184 3.698-16.933-15.696-15.571-27.569-27.972-35.618-37.175l-11.094 12.651c3.893 5.45 5.839 11.928 5.839 19.463l0 60.921-23.551 0 0 14.014 38.538 0 0-75.907C660.061 343.845 667.457 351.512 676.285 361.112zM634.438 475.946c15.181-15.439 25.817-26.602 31.92-33.477l-13.624-11.483c-8.175 10.642-18.226 22.188-30.168 34.645L634.438 475.946zM664.801 312.259l27.054 0L691.855 419.892l14.987 0 0-107.633 30.947 0L737.789 454.536l-62.283 0 0 14.403 130.016 0 0-14.403L753.36 454.536l0-58.585 45.155 0 0-14.403L753.36 381.548l0-69.29 55.276 0 0-14.403L664.801 297.855 664.801 312.259z"  horiz-adv-x="1025" />

    
    <glyph glyph-name="fanhui" unicode="&#59063;" d="M263.031 385.891l458.561 458.861c7.865 8.069 7.7 21.094-0.369 28.959s-21.094 7.7-28.959-0.369c0 0-472.774-473.184-472.883-473.279-7.865-8.069-7.7-21.094 0.369-28.959l472.446-467.285c8.069-7.865 21.094-7.7 28.959 0.369s7.7 21.094-0.369 28.959l-457.756 452.745z"  horiz-adv-x="1024" />

    
    <glyph glyph-name="home" unicode="&#59152;" d="M511.718 864c265.82 0 479.718-214.462 479.718-479.718s-214.462-479.718-479.718-479.718-479.718 214.462-479.718 479.718c0 265.255 214.462 479.718 479.718 479.718v0zM345.792 143.85900000000004h334.109c20.882 0 38.377 17.496 38.377 38.377v168.184c0 20.882 15.803 38.377 36.684 38.377 1.693 0 3.386 1.693 3.386 1.693 0 1.693 0 3.386-1.693 5.079l-217.284 217.284c-14.674 14.674-40.071 14.674-54.18 0l-217.849-217.849c-1.693-1.693-1.693-3.386-1.693-5.079s1.693-1.693 3.386-1.693c20.882 0 36.684-17.496 36.684-38.377v0-168.184c1.693-19.753 19.189-37.813 40.071-37.813v0zM756.656 350.41999999999996h7.901c15.803 0 28.783 9.594 34.991 24.268s3.386 30.476-7.901 41.764l-225.75 225.75c-30.476 30.476-78.448 30.476-108.924 0l-225.75-225.75c-11.288-11.287-14.674-27.09-7.901-41.764 6.208-14.674 19.189-24.268 34.991-24.268h7.901v-168.184c0-41.764 34.991-76.755 76.755-76.755h334.109c41.764 0 76.755 34.991 76.755 76.755v168.184h2.822z"  horiz-adv-x="1024" />

    
    <glyph glyph-name="more-big" unicode="&#58964;" d="M384 768c0-70.656 57.344-128 128-128s128 57.344 128 128S582.656 896 512 896 384 838.656 384 768zM384 384c0-70.656 57.344-128 128-128s128 57.344 128 128S582.656 512 512 512 384 454.656 384 384zM384 0c0-70.656 57.344-128 128-128s128 57.344 128 128-57.344 128-128 128S384 70.65599999999995 384 0z"  horiz-adv-x="1024" />

    
    <glyph glyph-name="person-header" unicode="&#59052;" d="M512.00307 818.172447c58.633399 0 115.489314-11.472286 168.982646-34.095539 51.691289-21.864984 98.131995-53.17713 138.02047-93.070722 39.893592-39.893592 71.205739-86.329181 93.070722-138.025587 22.624277-53.489238 34.097586-110.344131 34.097586-168.983669 0-58.633399-11.472286-115.489314-34.097586-168.982646-21.864984-51.691289-53.17713-98.131995-93.070722-138.02047-39.888476-39.893592-86.329181-71.205739-138.02047-93.070722-53.494355-22.624277-110.349247-34.097586-168.982646-34.097586-58.639538 0-115.494431 11.472286-168.983669 34.097586-51.696406 21.864984-98.131995 53.17713-138.025587 93.070722-39.893592 39.888476-71.205739 86.329181-93.070722 138.02047C89.299839 268.508639 77.82653 325.36353199999996 77.82653 383.99693c0 58.639538 11.472286 115.494431 34.095539 168.983669 21.864984 51.696406 53.17713 98.131995 93.070722 138.025587 39.888476 39.893592 86.329181 71.205739 138.025587 93.070722C396.507616 806.700161 453.363532 818.172447 512.00307 818.172447M512.00307 872.225527C242.358817 872.225527 23.774473 653.641183 23.774473 383.99693c0-269.638113 218.585367-488.222457 488.228597-488.222457 269.638113 0 488.222457 218.585367 488.222457 488.222457C1000.225527 653.641183 781.64016 872.225527 512.00307 872.225527L512.00307 872.225527 512.00307 872.225527zM512.00307 872.225527M274.355555 84.67168100000004l475.28889 0C749.644445 85.598796 274.355555 84.67168100000004 274.355555 84.67168100000004L274.355555 84.67168100000004 274.355555 84.67168100000004zM805.960055 127.42439000000002c-15.043624 103.56882-83.908038 189.776228-177.443341 229.553163 55.165414 37.248346 91.422176 100.209306 91.422176 171.60538 0 114.409726-93.094258 207.15913-207.93582 207.15913-114.847701 0-207.941959-92.748381-207.941959-207.15913 0-71.396073 36.256762-134.356011 91.428316-171.60538-93.541443-39.771819-162.40074-125.984343-177.449481-229.553163-1.979074-3.963265-3.095501-8.42795-3.095501-13.154601 0-16.346293 13.297864-29.599132 29.705556-29.599132 16.407692 0 29.705556 13.251815 29.705556 29.599132l0-29.599132c0 130.758066 106.400309 236.753145 237.646492 236.753145 131.24516 0 237.642398-105.995079 237.642398-236.753145l0 29.599132c0-16.346293 13.301957-29.599132 29.705556-29.599132 16.407692 0 29.704532 13.251815 29.704532 29.599132C809.055556 118.99644 807.939129 123.46112500000004 805.960055 127.42439000000002L805.960055 127.42439000000002 805.960055 127.42439000000002zM512.00307 380.61285599999997c-82.032318 0-148.529825 66.251913-148.529825 147.970076 0 81.719186 66.49853 147.9711 148.529825 147.9711 82.030271 0 148.523685-66.251913 148.523685-147.9711C660.526755 446.859653 594.033341 380.61285599999997 512.00307 380.61285599999997L512.00307 380.61285599999997 512.00307 380.61285599999997zM512.00307 380.61285599999997"  horiz-adv-x="1024" />

    
    <glyph glyph-name="heart-pink" unicode="&#58895;" d="M722.217792 815.133228c-81.084737 0-154.564261-32.398898-208.03815-84.724637-53.658084 52.113915-127.175471 84.334757-208.413704 84.259032C141.830239 814.556083 9.211802 682.849412 9.289574 520.656403 9.780761 148.30700000000002 515.106758-50.285011000000054 515.106758-50.285011000000054s504.797971 199.784162 504.32725 572.355623C1019.243673 684.138778 886.153492 815.309236 722.217792 815.133228z"  horiz-adv-x="1024" />

    
    <glyph glyph-name="kickback" unicode="&#59335;" d="M416 251.51999999999998c-10.88 0-19.2-8.32-19.2-19.2s8.32-19.2 19.2-19.2l76.8 0L492.8 121.60000000000002c0-10.88 8.32-19.2 19.2-19.2s19.2 8.32 19.2 19.2l0 91.52 76.8 0c10.88 0 19.2 8.32 19.2 19.2s-8.32 19.2-19.2 19.2L531.2 251.51999999999998l0 49.92 76.8 0c10.88 0 19.2 8.32 19.2 19.2s-8.32 19.2-19.2 19.2L533.12 339.84000000000003l88.32 88.32c7.68 7.68 7.68 19.84 0 26.88-7.68 7.68-19.84 7.68-26.88 0L512 372.48 429.44 455.04c-7.68 7.68-19.84 7.68-26.88 0-7.68-7.68-7.68-19.84 0-26.88l88.32-88.32L416 339.84000000000003c-10.88 0-19.2-8.32-19.2-19.2s8.32-19.2 19.2-19.2l76.8 0 0-49.92L416 251.51999999999998zM729.6 768L294.4 768c-42.24 0-76.8-34.56-76.8-76.8l0-88.96c0-7.68 5.12-15.36 12.8-17.92L506.24 492.8c1.92-0.64 3.84-1.28 5.76-1.28s3.84 0.64 5.76 1.28L793.6 584.3199999999999c7.68 2.56 12.8 9.6 12.8 17.92L806.4 691.2C806.4 733.44 771.84 768 729.6 768zM768 616.3199999999999L512 531.2 256 616.3199999999999 256 691.2c0 21.12 17.28 38.4 38.4 38.4l435.2 0c21.12 0 38.4-17.28 38.4-38.4L768 616.3199999999999zM787.2 531.2c-10.88 0-19.2-8.32-19.2-19.2l0-416c0-32-25.6-57.6-57.6-57.6L313.6 38.39999999999998c-32 0-57.6 25.6-57.6 57.6L256 512c0 10.88-8.32 19.2-19.2 19.2s-19.2-8.32-19.2-19.2l0-416c0-53.12 42.88-96 96-96l396.8 0c53.12 0 96 42.88 96 96L806.4 512C806.4 522.88 798.08 531.2 787.2 531.2z"  horiz-adv-x="1024" />

    
    <glyph glyph-name="ren-home" unicode="&#58909;" d="M1012.704526-48.20315800000003C1012.704526-48.24114499999996 1012.716193-48.276418000000035 1012.716193-48.31440399999997 1012.716193-73.892969 991.863657-94.627476 966.143729-94.627476L65.724846-94.627476C40.00329-94.627476 19.152653-73.892969 19.152653-48.31440399999997 19.152653-48.276418000000035 19.164049-48.24114499999996 19.164049-48.20315800000003L19.132846-48.20315800000003C19.132846-48.20315800000003 19.132846 120.54710299999999 143.141579 181.91927099999998 221.607546 220.73359200000004 191.400089 189.222122 287.732875 228.95815200000004 384.064034 268.62146499999994 406.88697 282.465815 406.88697 282.465815L407.793484 373.909503C407.793484 373.909503 371.713085 401.352649 360.503894 487.393068 337.924341 480.903936 330.470631 513.750351 329.139756 534.6633939999999 327.929081 554.8563260000001 316.074938 617.952526 343.612778 612.259748 337.978607 654.3842970000001 333.933346 692.3702470000001 335.91894 712.498874 342.824835 783.149448 411.256199 856.958304 516.666336 862.349634 640.655262 856.969971 689.77416 783.199101 696.660248 712.554497 698.670533 692.4199 694.248666 654.407631 688.609611 612.353357 716.163731 617.9731469999999 704.186404 554.9852080000001 702.847118 534.7803369999999 701.629931 513.867294 694.002026 481.135381 671.488136 487.612574 660.23119 401.575139 624.15242 374.348515 624.15242 374.348515L624.996256 283.373143C624.996256 283.373143 647.809696 270.41848400000003 744.140854 230.74377500000003 840.483409 191.019141 810.257772 220.72463800000003 888.737034 181.89892099999997 1012.735729 120.54710299999999 1012.735729-48.20315800000003 1012.735729-48.20315800000003L1012.704526-48.20315800000003Z"  horiz-adv-x="1024" />

    
    <glyph glyph-name="ren-pink" unicode="&#58887;" d="M664.68807463 896C381.58219162 896 152.68807463 667.1058820000001 152.68807463 384c0-283.105882 228.894118-512 512-512 283.105882 0 512 228.894118 511.99999999 512C1176.68807462 667.1058820000001 947.79395663 896 664.68807463 896zM515.60572163 581.270588c7.529412 19.576471 19.576471 37.647059 34.63529399 52.705882 15.058824 15.058824 33.129412 27.105882 51.20000001 34.635294 19.576471 7.529412 40.658824 12.047059 60.23529399 12.047059 21.082353 0 42.164706-4.517647 60.235294-12.047059 19.576471-7.529412 37.647059-19.576471 51.20000001-34.635294 15.058824-15.058824 27.105882-33.129412 34.63529399-52.705882 7.529412-19.576471 12.047059-40.658824 12.04705901-61.741176 0-21.082353-4.517647-42.164706-12.04705901-61.741176-7.529412-19.576471-19.576471-37.647059-34.63529399-52.705882-15.058824-15.058824-33.129412-27.105882-51.20000001-34.635294-19.576471-7.529412-40.658824-12.047059-60.235294-12.047059-21.082353 0-42.164706 4.517647-60.23529399 12.047059-19.576471 7.529412-37.647059 19.576471-51.20000001 34.635294-15.058824 15.058824-27.105882 33.129412-34.63529399 52.705882-7.529412 19.576471-12.047059 40.658824-12.04705901 61.741176C503.55866263 542.117647 508.07630963 563.2 515.60572163 581.270588zM914.66454463 123.48235299999999c-6.023529-16.564706-18.070588-25.6-34.63529401-34.635294-15.058824-9.035294-36.141176-12.047059-58.729412-12.047059 0 0 0 0 0 0l-316.235294 0c0 0 0 0 0 0-22.588235 0-42.164706 4.517647-58.729412 13.552941-16.564706 9.035294-28.611765 22.588235-34.63529399 37.647059-6.023529 16.564706-6.023529 40.658824 0 58.729412 3.011765 7.529412 4.517647 16.564706 9.035294 24.094118 45.176471 87.341176 137.035294 147.576471 242.44705899 147.576471 76.8 0 146.070588-30.117647 195.764706-81.317647 21.082353-22.588235 33.129412-39.152941 45.17647101-63.247059 4.517647-7.529412 9.035294-15.058824 10.541176-24.094118 3.011765-9.035294 6.023529-22.588235 6.023529-34.635294C920.68807463 143.05882399999996 917.67630963 132.517647 914.66454463 123.48235299999999z"  horiz-adv-x="1366" />

    
    <glyph glyph-name="tuijian-copy" unicode="&#58880;" d="M458.099 896l-458.026-458.026v-480.241l85.732-85.732v171.465l766.803 766.803h171.319l-85.659 85.659 0.073 0.072h-480.242zM230.137 411.907l-0.613-1.436c-1.598-3.746-4.679-8.893-9.419-15.734-2.454-4.947-4.427-8.73-5.903-11.333l54.672-54.672c7.417-6.875 11.277-13.876 11.407-20.747 0.124-6.656-3.208-13.156-9.943-19.364-2.895-3.904-8.121-9.657-15.255-16.791l-1.635-1.635-1.635 1.635c-2.426 2.426-6.69 5.681-12.672 9.671-1.997 0.972-3.746 2.151-4.95 3.353l-1.635 1.635 8.53 8.53c4.274 3.246 7.028 5.496 8.428 6.896 2.694 2.694 4.060 5.087 3.946 6.921-0.073 1.197-0.794 2.313-2.202 3.415l-49.413 49.387c-5.033-8.816-9.913-17.936-14.522-27.149l-1.293-2.583-20.753 16.979 1.229 1.756c6.746 9.638 12.617 19.343 17.466 28.87l-42.389 42.389-22.985-22.986-16.294 16.294 22.986 22.986-35.245 35.245 17.061 17.061 35.245-35.245 20.687 20.687 16.294-16.294-20.687-20.687 38.417-38.417c1.401 2.334 3.193 5.319 5.367 8.954 4.087 7.156 6.806 12.342 8.286 15.811l1.342 3.146 8.548-8.548c4.087-3.053 6.843-5.311 8.428-6.896l1.104-1.105zM424.512 465.777l-101.903-101.903 13.791-13.791-17.061-17.061-113.472 113.472c0.249-1.235 0.517-2.574 0.807-4.010 0.526-5.718 1.029-9.757 1.534-12.261l0.557-2.77-2.823 0.001c-6.196 0-12.701 0.26-19.333 0.773l-1.941 0.15-0.182 1.941c-3.543 37.889-13.017 74.51-28.162 108.845l-0.905 2.051 22.007 10.528 14.204-42.61 39.122 39.122c-12.672 3.829-25.512 6.76-38.187 8.714l-2.505 0.385 5.701 22.81 2.008-0.223c13.731-1.526 27.483-3.861 40.872-6.942l2.316-0.532-4.904-18.909 47.274 47.274 15.528-15.528-45.967-45.97 25.847-25.846 43.673 43.673 15.528-15.528-43.673-43.673 25.847-25.847 43.673 43.673 15.528-15.528-43.673-43.673 25.847-25.847 49.036 49.036 13.993-13.995zM583.88 692.569l-46.738-46.738 22.117-22.117c7.536-7.022 11.455-14.484 11.588-22.121 0.142-8.13-4.013-16.48-12.355-24.821-5.602-6.614-15.44-16.972-29.115-30.647l-1.462-1.462-1.615 1.29c-5.055 4.040-10.942 8.391-17.496 12.931l-2.275 1.579 11.152 11.152c11.725 10.679 18.761 17.228 22.219 20.687 0.581 0.511 1.011 0.911 1.41 1.312 2.499 2.499 3.727 4.934 3.647 7.236-0.089 2.535-1.751 5.225-4.939 7.994l-19.939 19.929-57.464-57.464-15.528 15.528 57.464 57.464-7.681 7.681 8.594 40.327-71.964-71.964-16.294 16.294 100.575 100.575 14.729-14.729-9.602-59.829 45.441 45.441 15.529-15.528zM481.211 796.77l-48.271-48.269 14.558-14.558-17.061-17.061-14.558 14.558-48.066-48.066 10.601-10.601 10.823 8.852 0.582-4.053c0.329-2.296 0.884-4.607 1.658-6.904l105.618 105.618 17.061-17.061-114.071-114.071c3.859-13.726 6.81-27.555 8.779-41.141l89.202-89.202-17.061-17.061-68.618 68.618c0.679-14.671 0.569-30.736-0.329-47.849l-0.185-3.518-3.152 1.57c-1.764 0.88-4.858 1.575-9.194 2.072-6.294 1.247-9.153 1.51-10.476 1.519l-2.493 0.013 0.203 2.485c2.909 35.887 0.431 70.116-7.365 101.804l-42.432-42.432-17.061 17.061 52.038 52.038c-0.753 2.905-1.648 5.979-2.67 9.18l-7.023-7.023-12.259 12.259-49.036-49.036-16.294 16.294 49.036 49.036-16.856 16.856 17.826 17.826 16.856-16.856 48.066 48.066-16.856 16.856 17.061 17.061 16.856-16.856 48.271 48.271 16.293-16.294zM344.425 413.674l-35.806-35.806-25.846 25.846 35.806 35.806 25.846-25.846zM303.050 455.049l-35.806-35.806-25.846 25.846 35.806 35.806 25.846-25.846zM261.676 496.423l-35.806-35.806-25.846 25.846 35.806 35.806 25.846-25.846z"  horiz-adv-x="1024" />

    
    <glyph glyph-name="tip-off" unicode="&#58988;" d="M512.019836 895.300166C229.341005 895.300166 0.168979 666.439226 0.168979 384.11665 0.168979 101.79407400000002 229.341004-127.07232999999997 512.019836-127.07232999999997 794.708243-127.07232999999997 1023.884371 101.79270799999995 1023.884371 384.11665 1023.883002 666.439226 794.708243 895.300166 512.019836 895.300166L512.019836 895.300166 512.019836 895.300166ZM512.019836-50.392341999999985C271.735784-50.392341999999985 76.94223 144.15270899999996 76.94223 384.115286 76.94223 624.094259 271.735784 818.627008 512.019836 818.627008 752.301152 818.627008 947.09607 624.094253 947.09607 384.115286 947.094707 144.15407500000003 752.301152-50.392341999999985 512.019836-50.392341999999985L512.019836-50.392341999999985 512.019836-50.392341999999985ZM537.897737 290.319705L552.23407 670.347885 457.610169 670.347885 471.958814 290.319705 537.897737 290.319705 537.897737 290.319705ZM503.504218 230.20747100000006C471.960182 230.20747100000006 446.874335 204.44528000000003 446.874335 172.24561500000004 446.874335 140.75226899999996 470.514236 113.55694700000004 503.504218 113.55694700000004 535.015423 113.55694700000004 560.83587 139.32733499999995 560.83587 172.24561500000004 560.83587 204.44391299999995 535.015423 230.20747100000006 503.504218 230.20747100000006L503.504218 230.20747100000006 503.504218 230.20747100000006Z"  horiz-adv-x="1024" />

    
    <glyph glyph-name="chengjiu" unicode="&#58963;" d="M337.8944 433.04853333333335c-1.2234666666666665 4.903466666666667-2.2218666666666667 9.860266666666666-3.115733333333333 14.929066666666667-0.14400000000000002 0.9109333333333333-0.2912 1.7866666666666666-0.42133333333333334 2.6965333333333334-0.8021333333333334 5.102933333333333-1.4773333333333334 10.2464-1.9135999999999997 15.438933333333331-0.05653333333333333 0.7498666666666666-0.09066666666666667 1.4773333333333334-0.14400000000000002 2.2218666666666667-0.42133333333333334 5.4879999999999995-0.6922666666666667 11.030399999999998-0.6922666666666667 16.622933333333332v91.75573333333334c-2.6250666666666667 0.5461333333333334-5.235200000000001 0.8906666666666666-7.838933333333334 0.8906666666666666-2.9354666666666662 0-5.833600000000001-0.36906666666666665-8.658133333333334-1.1306666666666667-26.757333333333335-7.234133333333333-40.5184-47.138133333333336-30.0384-87.1648 8.475733333333332-32.30293333333333 31.004800000000003-57.251200000000004 54.023466666666664-61.062400000000004-0.2197333333333333 0.8352-0.42133333333333334 1.6575999999999995-0.6592 2.5365333333333333-0.16426666666666667 0.7498666666666666-0.38079999999999997 1.4944-0.5461333333333334 2.2581333333333333zM711.5072 576.4821333333333c-2.7872 0.7690666666666666-5.7024 1.1306666666666667-8.621866666666667 1.1306666666666667-2.6058666666666666 0-5.235200000000001-0.34773333333333334-7.838933333333334-0.8906666666666666v-91.73866666666666c0-5.594666666666667-0.25279999999999997-11.157333333333334-0.6762666666666667-16.660266666666665-0.05653333333333333-0.7274666666666667-0.09066666666666667-1.4367999999999999-0.16426666666666667-2.1877333333333335-0.45546666666666663-5.198933333333333-1.0976-10.335999999999999-1.9135999999999997-15.438933333333331-0.14400000000000002-0.9109333333333333-0.2730666666666667-1.7866666666666666-0.4341333333333333-2.6794666666666664-0.8554666666666667-5.067733333333334-1.8794666666666668-10.0448-3.0986666666666665-14.948266666666665-0.1824-0.7829333333333333-0.38079999999999997-1.5157333333333334-0.5824-2.280533333333333-0.2197333333333333-0.8554666666666667-0.42133333333333334-1.6949333333333332-0.6592-2.5365333333333333 23.057066666666664 3.8090666666666664 45.569066666666664 28.764799999999997 54.04586666666666 61.062400000000004 10.481066666666667 40.028800000000004-3.2629333333333332 79.9296-30.05653333333333 87.1648zM504.7873333333334 871.019c-264.255 0-478.476-214.219-478.476-478.476s214.219-478.476 478.476-478.476c264.255 0 478.476 214.219 478.476 478.476s-214.219 478.476-478.476 478.476zM599.7313333333334 102.043h-172.644c-5.961 0-11.572 2.836-15.194000000000003 7.672999999999999-3.603999999999999 4.818-4.769 11.055-3.1789999999999994 16.881l14.354999999999997 52.427c2.29 8.372 9.79 14.163 18.354 14.163h40.414v69.905c10.252-1.762 20.782-2.715 31.476999999999997-2.715 10.716 0 21.226 0.955 31.458 2.715v-69.905h40.449c8.56 0 16.044-5.792 18.354-14.163l13.724-50.102999999999994c0.955-2.307 1.468-4.853 1.468-7.502 0.02-10.7-8.512-19.375-19.037-19.375zM756.7563333333334 474.756c-12.527-47.844-48.909-80.777-85.801-80.777-1.849 0-3.744 0.19-5.607 0.375-1.385-3.007-2.836-5.961-4.356-8.869-0.273-0.527-0.546-1.04-0.821-1.554-2.237-4.171-4.635-8.257-7.142999999999999-12.201-0.291-0.448-0.581-0.889-0.854-1.3159999999999998-2.633-4.051-5.381-8.015-8.289-11.825-0.069-0.102-0.135-0.19-0.221-0.273-6.117-7.982-12.799-15.395-20.046-22.145-0.11899999999999998-0.135-0.23699999999999996-0.256-0.357-0.357-3.551-3.316-7.246-6.475-11.055-9.469-0.171-0.11899999999999998-0.346-0.273-0.512-0.407-15.67-12.235999999999997-33.285-21.616-52.237-27.493-0.085-0.02-0.154-0.033-0.206-0.069-4.731-1.455-9.552-2.7-14.422-3.709h-0.085c-5.041-1.04-10.164-1.8609999999999998-15.345000000000002-2.393-0.154-0.033-0.273-0.033-0.395-0.033-5.159-0.527-10.374-0.835-15.67-0.835-5.28 0-10.526 0.291-15.706 0.835-0.11899999999999998 0-0.256 0-0.357 0.033-5.199 0.527-10.341 1.333-15.414000000000001 2.393h-0.033c-4.908 1.029-9.706 2.276-14.454 3.7249999999999996-0.069 0.033-0.11899999999999998 0.033-0.19 0.069-18.951 5.882-36.583 15.277-52.257 27.51-0.171 0.135-0.346 0.256-0.527 0.407-3.775 2.99-7.465 6.137-11.038 9.45-0.11899999999999998 0.102-0.221 0.256-0.375 0.375-7.193 6.747-13.909 14.131-19.991 22.115-0.085 0.085-0.171 0.19-0.256 0.291-2.891 3.826-5.627 7.7749999999999995-8.257 11.808-0.307 0.448-0.581 0.889-0.875 1.333-2.5119999999999996 3.931-4.885 8.015-7.129 12.181-0.291 0.49300000000000005-0.562 1.04-0.835 1.589-1.504 2.891-2.956 5.826-4.324 8.833-1.8810000000000002-0.19-3.744-0.375-5.627-0.375-36.876 0-73.255 32.928-85.801 80.794-14.337 54.751999999999995 7.945999999999999 108.306 49.794 119.634 5.28 1.421 10.628 2.103 15.958000000000002 2.103 2.443 0 4.885-0.171 7.349-0.448v51.658c0 10.065 8.034 18.234 17.941 18.234h304.839c9.897 0 17.927-8.171 17.927-18.234v-51.658c2.443 0.273 4.908 0.448 7.361 0.448 5.312 0 10.666-0.682 15.944999999999999-2.103 41.798-11.346 64.099-64.9 49.747-119.653z"  horiz-adv-x="1024" />

    
    <glyph glyph-name="shimingyirenzheng" unicode="&#58914;" d="M712.027196 368.841117c47.080963 50.878286 74.418767 121.498514 74.418767 195.979313 0 168.516229-137.191358 305.770835-305.832867 305.770835-168.578261 0-305.832867-137.254606-305.832867-305.770835 0-113.652092 62.773807-211.735405 153.009481-262.675722C163.072021 247.279355 37.712936 76.708777 14.110423-103.577693l622.377783 0c-47.079747 50.941534-89.240732 143.169526-89.240732 217.588293C547.247474 227.662692 614.007132 325.683973 712.027196 368.841117L712.027196 368.841117M712.027196 368.841117M813.972296 317.837551c-109.853553 0-196.042561-90.174859-196.042561-199.8411 0-109.728273 90.112827-199.903132 196.042561-199.903132 109.728273 0 195.917281 90.174859 195.917281 199.903132C1009.889577 227.787972 923.638537 317.837551 813.972296 317.837551L813.972296 317.837551M813.972296 12.066717l-19.554631-23.540482-101.943883 109.791521 35.247474 35.185442 62.648527-66.634377 121.623794 152.885417 39.170077-31.324871L813.972296 12.066717 813.972296 12.066717M813.972296 12.066717"  horiz-adv-x="1024" />

    
    <glyph glyph-name="pingjia" unicode="&#58886;" d="M220.681 243.215l-76.078-172.163c0 0-13.331-29.948 26.172-47.531 39.503-17.586 63.47-2.055 66.899 0.975l74.168 65.564 0.918-98.987c0.043-4.576 4.542-32.78 44.045-50.362 39.504-17.588 52.833 12.361 52.833 12.361l69.162 156.514c-103.959 7.915-195.539 58.441-258.12 133.629v0zM803.316 243.215l76.078-172.163c0 0 13.33-29.948-26.172-47.531-39.503-17.586-63.471-2.055-66.899 0.975l-74.169 65.564-0.917-98.987c-0.042-4.576-4.545-32.78-44.046-50.362-39.504-17.588-52.834 12.361-52.834 12.361l-69.161 156.514c103.959 7.915 195.541 58.441 258.121 133.629v0zM511.998 823.584c185.371 0 335.644-150.274 335.644-335.644 0-185.371-150.275-335.644-335.644-335.644s-335.644 150.275-335.644 335.644c0 185.372 150.274 335.644 335.644 335.644v0zM525.324 652.493c-2.732 5.088-7.646 8.077-13.421 8.16-5.776 0.085-10.772-2.758-13.653-7.764l-51.022-88.695c-2.357-4.096-6.024-6.679-10.675-7.519l-92.45-16.693c-5.684-1.026-10.042-4.777-11.908-10.243-1.864-5.465-0.705-11.099 3.165-15.384l68.585-75.932c3.169-3.508 4.492-7.792 3.854-12.475l-12.691-93.083c-0.783-5.724 1.437-11.028 6.060-14.49 4.623-3.464 10.338-4.101 15.611-1.745l93.41 41.764c4.313 1.929 8.798 1.861 13.055-0.191l84.607-40.836c5.2-2.509 10.934-2.037 15.654 1.288 4.721 3.328 7.097 8.564 6.484 14.307l-10.855 101.743c-0.501 4.701 0.948 8.945 4.217 12.357l64.982 67.848c3.994 4.171 5.315 9.766 3.61 15.285-1.703 5.521-5.951 9.395-11.604 10.587l-100.118 21.117c-4.625 0.974-8.214 3.664-10.449 7.828l-44.447 82.766z"  horiz-adv-x="1024" />

    
    <glyph glyph-name="new" unicode="&#58906;" d="M769.449158 578.428249l-514.898129 0c-106.043124 0-192.805817-86.762693-192.805817-192.805817l0-3.245051c0-106.043124 86.762693-192.805567 192.805817-192.805567l514.898129 0c106.043249 0 192.805692 86.762443 192.805692 192.805567l0 3.245051C962.254851 491.665556 875.492408 578.428249 769.449158 578.428249zM403.016025 299.012885l-23.329812 0-82.130457 126.40957-0.714141 0 0-126.40957-24.757719 0L272.083895 468.986927l23.091349 0 82.130083-126.171232 0.714266 0L378.019593 468.986927l24.996433 0L403.016025 299.012885zM546.563854 446.847683l-78.797092 0 0-50.706381 74.273158 0 0-21.187139-74.273158 0 0-53.801783 78.797092 0 0-22.139494-104.268952 0L442.294902 468.986927l104.268952 0L546.563854 446.847683zM724.154109 299.012885l-23.329812 0-34.28089 128.313779-0.95173 0-34.280765-128.313779-23.329937 0-46.182698 169.974042 29.04319 0 29.519117-129.027796 0.951605 0 32.376805 129.027796 24.75722 0 32.376805-129.027796 0.951605 0 29.75783 129.027796 28.804476 0L724.154109 299.012885z"  horiz-adv-x="1024" />

    
    <glyph glyph-name="more" unicode="&#59161;" d="M192 384m-128 0a2 2 0 1 1 256 0 2 2 0 1 1-256 0ZM512 384m-128 0a2 2 0 1 1 256 0 2 2 0 1 1-256 0ZM832 384m-128 0a2 2 0 1 1 256 0 2 2 0 1 1-256 0Z"  horiz-adv-x="1024" />

    
    <glyph glyph-name="Men" unicode="&#58919;" d="M663.461063 127.821639c-11.982011 17.322564-20.768819 45.668579-2.259465 156.108486a1627.91024 1627.91024 0 0 1 63.858412 67.80677l1.643248 1.848653 5.272084 29.190461c45.257767 98.41225 185.344592 456.731434-148.987747 508.105732C204.789684 948.988789 208.258762 495.977484 345.310144 360.067245l1.163967-6.481697 1.66607-1.848653a1606.570849 1606.570849 0 0 1 63.881235-67.852416c15.70214-93.938966 11.685314-128.515626 2.464871-147.664021C271.478133 106.938706 36.927417 35.640035 0-128h1049.852387c-60.069815 149.809371-251.896104 222.180717-386.391324 255.821639z m-243.816806 173.362581a1511.604854 1511.604854 0 0 0-56.828966 60.457804l-17.459502 96.495128c-0.912915 5.568782-1.711716 10.954981-2.556162 16.409649 0.661863 92.090313 13.328561 205.246142 71.595368 206.569869l131.984704-101.58463v33.115996l73.83201-33.115996-13.442675 61.827176 31.335811-11.046272 11.18321 35.329815-26.839704 68.468634 118.47356-125.617121c0.730332-43.728634-3.606015-93.824851-13.07751-150.243005l-17.482324-96.609243a1531.278175 1531.278175 0 0 0-65.684243-69.290257c-44.002509-43.523228-89.442859-82.436235-108.08915-82.436236-18.646291 0-64.063818 38.913007-108.066327 82.436236-2.989797 2.921328-5.933948 5.86548-8.8781 8.832453z m116.944427-342.343169c-87.206217 0-158.20819 40.624723-158.20819 90.538357 0 16.18142 7.942362 32.225904 22.982638 46.421733l1.98559 1.871476c3.697306 3.286494 7.782601 6.481697 12.164594 9.471495l2.624631 2.670276c6.276291 7.988007 12.643874 16.090129 16.88893 30.44572 6.207823 21.042693 7.759779 55.756291-2.122528 123.175072 38.821715-36.927417 80.975571-71.207379 103.661512-71.207379 22.663118 0 64.816973 34.279963 103.638689 71.207379-11.000627-75.087269-7.759779-109.572637 0.365166-130.13605 4.176587-10.498524 9.631255-17.413856 15.085922-24.352011l1.939945-1.82583c4.541753-3.103911 8.718339-6.367583 12.415646-9.722546l1.757361-1.66607c15.017454-14.173007 22.982638-30.240313 22.982638-46.398911 0.045646-49.867988-70.933505-90.492711-158.162544-90.492711z"  horiz-adv-x="1050" />

    
    <glyph glyph-name="authentication-word" unicode="&#58903;" d="M1802.637-59.20799999999997c0 0-1469.758 0-1469.758 0-75.148 0-136.088 60.94-136.088 136.088 0 0 0 571.572 0 571.572 0 75.148 60.94 136.088 136.088 136.088 0 0 1469.758 0 1469.758 0 75.148 0 136.088-60.94 136.088-136.088 0 0 0-571.572 0-571.572 0-75.148-60.94-136.088-136.088-136.088zM759.626 288.98900000000003c-6.614-60.124-13.201-69.269-57.13-69.269 0 0-132.224 0-132.224 0-48.774 0-54.925 2.613-54.925 29.613 0 0 0 80.156 0 80.156 0 0 183.202 0 183.202 0 0 0 0-19.597 0-19.597 0 0 66.765 0 66.765 0 0 0 0 225.172 0 225.172 0 0-330.777 0-330.777 0 0 0 0-62.709 0-62.709 0 0 264.012 0 264.012 0 0 0 0-80.592 0-80.592 0 0-183.202 0-183.202 0 0 0 0 52.258 0 52.258 0 0-66.33 0-66.33 0 0 0 0-195.124 0-195.124 0-73.597 27.681-92.322 120.819-92.322 0 0 136.17 0 136.17 0 84.783 0 107.211 23.951 118.179 108-18.454 3.484-48.311 14.398-64.561 24.414zM922.089 554.6610000000001c0 0-41.724-40.064-41.724-40.064 22.836-21.338 57.103-51.822 72.481-70.14 0 0 43.929 45.318 43.929 45.318-17.147 17.42-52.72 45.726-74.686 64.887zM1003.796 286.376c0 0-31.192-22.237-31.192-22.237s0 161.156 0 161.156c0 0-122.561 0-122.561 0 0 0 0-60.532 0-60.532 0 0 61.076 0 61.076 0 0 0 0-121.963 0-121.963 0-24.822-15.814-43.549-27.681-52.693 10.098-9.145 26.347-30.92 31.627-43.549 8.791 10.887 24.605 24.387 107.183 85.355-6.151 12.193-14.943 37.451-18.454 54.463zM1159.318 555.5319999999999c0 0-65.023 0-65.023 0-1.307-138.511 4.409-279.173-106.313-361.942 17.583-11.322 37.343-31.355 47.875-47.903 46.569 37.451 75.148 84.484 93.139 137.64 17.583-50.978 46.134-102.802 93.575-139.382 10.098 16.549 27.681 35.709 45.698 47.903-97.522 70.113-108.952 198.172-112.463 245.205 2.64 39.22 3.076 78.849 3.511 118.478zM1345.514 553.79c0 0-40.853-38.322-40.853-38.322 23.734-21.774 56.232-52.258 70.303-72.318 0 0 43.467 43.576 43.467 43.576-15.813 19.162-49.182 47.468-72.916 67.064zM1396.929 280.279c0 0 0 145.016 0 145.016s-108.082 0-108.082 0c0 0 0-60.532 0-60.532 0 0 46.134 0 46.134 0 0 0 0-111.511 0-111.511 0-29.178-16.712-52.258-29.014-63.58 10.561-7.838 31.192-28.307 38.241-40.064 8.329 11.758 25.041 26.564 108.054 101.032-7.893 12.193-19.76 38.349-25.476 56.205 0 0-29.857-26.564-29.857-26.564zM1702.23 219.284c0 0-80.375 0-80.375 0s0 108.463 0 108.463c0 0 63.689 0 63.689 0 0 0 0 58.791 0 58.791 0 0-63.689 0-63.689 0 0 0 0 88.866 0 88.866 0 0 72.045 0 72.045 0 0 0 0 58.791 0 58.791 0 0-253.506 0-253.506 0 0 0 0-58.791 0-58.791 0 0 115.539 0 115.539 0 0 0 0-256.119 0-256.119 0 0-32.498 0-32.498 0 0 0 0 191.205 0 191.205 0 0-63.254 0-63.254 0 0 0 0-191.205 0-191.205 0 0-28.987 0-28.987 0 0 0 0-58.791 0-58.791 0 0 271.034 0 271.034 0 0 0 0 58.791 0 58.791z"  horiz-adv-x="2115" />

    
    <glyph glyph-name="star-empty" unicode="&#58908;" d="M1020.192 494.176c-8.864 25.568-31.616 44.288-59.008 48.352l-266.432 39.616-115.808 240.448c-12.192 25.248-38.272 41.408-66.944 41.408s-54.752-16.16-66.944-41.408l-115.808-240.448-266.464-39.616c-27.36-4.064-50.112-22.784-58.944-48.352-8.8-25.632-2.144-53.856 17.184-73.12l195.264-194.944-45.28-270.432c-4.608-27.232 7.2-54.56 30.336-70.496 12.704-8.736 27.648-13.184 42.592-13.184 12.288 0 24.608 3.008 35.776 8.992l232.288 125.056 232.32-125.056c11.168-5.984 23.488-8.992 35.744-8.992 14.944 0 29.888 4.448 42.624 13.184 23.136 15.936 34.88 43.264 30.304 70.496l-45.312 270.432 195.328 194.944c19.296 19.296 25.92 47.52 17.184 73.12zM754.816 276.384c-16.384-16.32-23.808-39.328-20.064-61.888l45.312-270.432-232.32 124.992c-11.136 6.016-23.424 8.992-35.776 8.992-12.288 0-24.608-3.008-35.744-8.992l-232.32-124.992 45.312 270.432c3.776 22.56-3.648 45.568-20.032 61.888l-195.264 194.944 266.432 39.68c24.352 3.616 45.312 18.848 55.776 40.576l115.872 240.384 115.84-240.416c10.496-21.728 31.424-36.928 55.744-40.576l266.496-39.68-195.264-194.912z"  horiz-adv-x="1024" />

    
    <glyph glyph-name="biaoqian" unicode="&#58894;" d="M115.31 406.88l-35.765-35.604c-10.604-10.542-16.468-24.596-16.468-39.509 0-14.956 5.83-29 16.437-39.567l337.594-335.976c10.591-10.584 24.676-16.404 39.69-16.404 15.01 0 29.13 5.82 39.72 16.375l24.97 24.856-406.179 425.83zM956.816 467.843V761.805c0 37.304-30.499 67.675-67.971 67.675l-289.06-0.03-12.394 0.03c-18.919 0-47.566 0-66.257-18.607L143.599 435.041l406.176-425.829L938.107 395.78c18.935 18.82 18.815 45.883 18.709 72.064z m-227.211 60.074c-41.842 0-75.744 33.731-75.744 75.393 0 41.633 33.902 75.38 75.744 75.38 41.838 0 75.74-33.746 75.74-75.38 0-41.663-33.902-75.393-75.74-75.393z"  horiz-adv-x="1024" />

    
    <glyph glyph-name="chat-header" unicode="&#58986;" d="M192.44032-54.69695999999999l24.7552 216.91904c-97.88928 71.62368-153.7536 174.47936-153.7536 283.89376 0 207.64672 201.23648 376.576 448.5632 376.576s448.5632-168.92928 448.5632-376.576c0-207.65184-201.23648-376.58624-448.5632-376.58624-31.07328 0-62.40256 2.78016-93.22496 8.25856l-226.33984-132.48512zM512 783.57504c-225.76128 0-409.4464-151.38816-409.4464-337.4592 0-99.91168 53.38624-194.16064 146.49856-258.56512l9.64608-6.66624-18.5088-162.31936 171.47904 100.3776 7.2192-1.39264A494.63296 494.63296 0 0 1 512 108.65152c225.76128 0 409.4464 151.38816 409.4464 337.46944 0 186.07104-183.68512 337.45408-409.4464 337.45408M339.66592 479.616c-21.48864 0-38.92736-17.54624-38.92736-39.17312 0-21.632 17.43872-39.17312 38.92736-39.17312 21.48864 0 38.90688 17.54112 38.90688 39.17312 0 21.62688-17.41824 39.17312-38.90688 39.17312M514.83136 479.616c-21.48864 0-38.90688-17.54624-38.90688-39.17312 0-21.632 17.41824-39.17312 38.90688-39.17312 21.52448 0 38.92736 17.54112 38.92736 39.17312 0 21.62688-17.39776 39.17312-38.92736 39.17312M690.01728 479.616c-21.50912 0-38.92736-17.54624-38.92736-39.17312 0-21.632 17.41824-39.17312 38.92736-39.17312s38.92736 17.54112 38.92736 39.17312c0 21.62688-17.41824 39.17312-38.92736 39.17312"  horiz-adv-x="1024" />

    
    <glyph glyph-name="authentication-word3" unicode="&#59110;" d="M3277.376 881.936H146.848A136.064 136.064 0 0 1 10.784 745.8720000000001v-719.888a136.064 136.064 0 0 1 136.064-136.064h3130.528a136.08 136.08 0 0 1 136.064 136.064V745.8720000000001a136.064 136.064 0 0 1-136.064 136.064z m-699.104-165.04c3.648-3.68 9.12-10.064 16.448-19.2 38.4-45.728 65.824-78.64 82.288-98.736l-65.824-43.872c-23.776 34.704-54.848 75.84-93.232 123.408l60.32 38.4z m-703.2 2.736a7123.408 7123.408 0 0 0 109.696-112.432l-63.072-49.36c-27.44 32.912-62.192 72.208-104.224 117.936l57.6 43.856zM946.56 647.264l-2.16-3.984-342.112-591.04h-59.472L375.744 366.46400000000006l-68.352-37.696-31.888 95.648 164.624 91.04 150.224-284.8L855.2 673.952h91.36v-26.688z m743.68-459.68c-10.976-62.144-53.952-91.408-128.912-87.76H1224c-78.64 0-117.936 36.592-117.936 109.696V538.624h79.552v-85.008h370.24V618.1600000000001h-466.24v71.312h543.024v-304.416H1185.616v-156.336c-1.84-45.712 20.096-67.664 65.808-65.824h282.48c49.36-3.68 77.68 16.448 85.008 60.336 0 9.136 1.792 21.952 5.488 38.4 1.792 21.936 3.648 38.384 5.488 49.36 16.448-5.488 39.296-11.92 68.56-19.2 3.648-1.84 6.384-2.736 8.24-2.736a2417.008 2417.008 0 0 0-16.448-101.472z m176.608-74.048l-49.36 52.112c16.448 21.952 24.688 43.888 24.688 65.824V437.152h-76.8v68.56h148.096v-249.568c14.608 10.976 44.784 39.296 90.496 85.008a404.064 404.064 0 0 1 21.952-71.312c-47.584-43.888-85.968-80.48-115.184-109.696-20.144-18.24-34.768-33.808-43.888-46.608z m537.536 2.736a2805.76 2805.76 0 0 1-27.44-35.648c-93.232 74.944-152.672 181.008-178.272 318.128-21.936-128-85.008-237.696-189.232-329.104-16.448 25.632-32.912 47.568-49.36 65.824 126.16 93.248 189.232 236.752 189.232 430.576 0 20.096 0.912 52.112 2.752 95.984v54.848h76.784c0-49.36-0.944-86.864-2.736-112.432 18.256-224.896 85.92-376.672 202.944-455.264-5.472-5.488-13.696-16.448-24.672-32.912z m124.528 49.376c14.608 16.464 21.936 40.192 21.936 71.312V437.152h-68.56v68.56h139.872v-263.28l24.672 24.672c18.272 20.096 31.968 34.704 41.136 43.888 1.792-32.912 5.488-60.336 10.976-82.288-32.912-31.104-74.048-70.4-123.408-117.936l-46.624 54.88z m619.808-63.088h-485.44v63.072h76.8v348.32h71.312v-348.304h93.232V615.424h-205.68v68.56h436.064v-68.56h-156.336v-175.52h137.136v-65.824h-137.136v-208.432h170.048v-63.088z"  horiz-adv-x="3424" />

    
    <glyph glyph-name="yaoqinghaoyou" unicode="&#58980;" d="M640 384c94.293333 0 170.666667 76.373333 170.666667 170.666667s-76.373333 170.666667-170.666667 170.666666-170.666667-76.373333-170.666667-170.666666 76.373333-170.666667 170.666667-170.666667z m-384 85.333333V597.333333H170.666667v-128H42.666667v-85.333333h128v-128h85.333333v128h128v85.333333H256z m384-170.666666c-113.92 0-341.333333-57.173333-341.333333-170.666667v-85.333333h682.666666v85.333333c0 113.493333-227.413333 170.666667-341.333333 170.666667z"  horiz-adv-x="1024" />

    
    <glyph glyph-name="authentication-label2" unicode="&#58904;" d="M329.016-127.35299999999995L297.15 73.56500000000005l-183.082-88.679 243.887 467.067 214.948-112.239zM697.785-127.71400000000006l42.218 199 178.25-98.031-219.397 479.058L478.39 351.347zM863.53 431.034l44.969 32.879-37.797 40.923 37.105 41.552-45.515 32.12 27.599 48.388-51.221 21.897 16.875 53.09-54.665 10.707 5.409 55.444-55.699-0.954-6.302 55.35-54.266-12.575-17.731 52.811-50.438-23.638-28.377 47.939-41.177-31.225-34.396 38.57-37.074-41.574-44.945 32.907-27.566-48.405-50.832 22.787-16.841-53.098-54.473 11.66-5.368-55.445-55.707 0.017 6.336-55.342-54.48-11.626 17.765-52.795-50.849-22.757 28.408-47.917-44.968-32.88 37.794-40.922-37.104-41.552 45.513-32.119-27.598-48.389 51.22-21.898-16.875-53.09 54.665-10.706-5.406-55.445 55.696 0.953 6.301-55.349 54.267 12.574 17.73-52.81 50.44 23.637 28.375-47.938 41.18 31.226 34.395-38.571 37.077 41.575 44.945-32.908 27.566 48.405 50.83-22.786 16.843 53.098 54.471-11.659 5.371 55.444 55.704-0.018-6.334 55.344 54.478 11.625-17.765 52.796 50.847 22.756-28.405 47.917zM511.938 829.517c-180.95 0-327.639-146.69-327.639-327.64 0-180.951 146.688-327.64 327.639-327.64s327.64 146.689 327.64 327.64c0 180.95-146.689 327.64-327.64 327.64z m0-645.122c-175.341 0-317.482 142.143-317.482 317.483 0 175.341 142.141 317.482 317.482 317.482 175.34 0 317.483-142.141 317.483-317.482 0.001-175.341-142.143-317.483-317.483-317.483zM310.264 579.2950000000001l152.221-228.729 263.058 302.623-252.244-187.323z"  horiz-adv-x="1024" />

    
    <glyph glyph-name="list-more" unicode="&#59209;" d="M333.251432 807.839101l415.421384-369.273345c15.446807-13.734816 19.883863-35.975353 12.68081-54.639434 7.121188-18.639522 2.657526-40.780799-12.762675-54.486962l-415.394778-369.289717c-19.117406-16.991999-47.545876-14.458293-63.458287 5.655813-15.940041 20.1182-13.365402 50.202379 5.750981 67.210751l394.880559 351.017562-394.797672 350.950024c-19.117406 17.008372-21.718651 47.095621-5.77861 67.210751 15.941064 20.119223 44.341904 22.649859 63.458288 5.644557z"  horiz-adv-x="1024" />

    
    <glyph glyph-name="freeRecomment" unicode="&#58881;" d="M125.857-92.49699999999996c-0.569 7.753-0.862 15.569-0.862 23.449 0 193.216 173.61 350.407 387.005 350.407 213.394 0 387.006-157.193 387.006-350.407 0-7.879-0.294-15.697-0.862-23.449h65.859c0.466 7.781 0.707 15.598 0.707 23.449 0 56.627-12.133 111.545-36.068 163.225-23.002 49.668-55.867 94.215-97.678 132.404-66.23 60.49-149.269 99.885-239.367 114.507 107.486 34.097 185.644 135.338 185.644 254.608 0 147.165-118.987 266.894-265.241 266.894-146.254 0-265.241-119.728-265.241-266.894 0-119.271 78.159-220.511 185.644-254.608-90.098-14.622-173.138-54.017-239.367-114.507-41.812-38.188-74.675-82.737-97.678-132.404-23.933-51.68-36.068-106.597-36.068-163.225 0-7.851 0.242-15.668 0.707-23.449h65.86zM314.422 595.696c0 109.623 88.633 198.807 197.578 198.807s197.578-89.184 197.578-198.807c0-109.625-88.631-198.809-197.578-198.809s-197.578 89.184-197.578 198.809z"  horiz-adv-x="1024" />

    
    <glyph glyph-name="jiazaishibai" unicode="&#59035;" d="M984.297544 752.415439c0.628772 15.764211 12.710175 30.181053 28.384561 32.875789 19.577263 4.087018 39.832702-12.755088 40.286316-32.606316 2.649825-27.665965 0.58386-55.466667 1.212632-83.222456-23.444211 0-46.88393 0-70.377544-0.044912 0.588351 27.665965-0.943158 55.33193 0.494035 82.997895zM475.486316 530.728421c7.814737 7.500351 21.782456 2.110877 24.117895-7.904561 4.13193-11.587368-9.880702-24.387368-20.974036-18.189474-10.150175 4.401404-12.081404 19.536842-3.143859 26.094035zM480.561404 328.26386c34.986667 31.618246 80.797193 51.554807 128.224561 52.457544 48.819649 2.519579 98.272561-14.102456 135.859649-45.271579 6.916491-4.670877 8.313263-13.199719 10.558877-20.614737-23.044491 8.492912-39.702456 27.935439-62.652631 36.648421-66.694737 30.630175-149.46807 15.898947-203.093334-33.684211-2.56 0-7.68-0.044912-10.24-0.089824 0.354807 2.649825 0.983579 7.904561 1.342878 10.554386zM983.534035 100.962807c52.457544-7.729404 105.409123-16.572632 154.992281-36.02414 15.629474-7.010807 33.86386-14.551579 41.233965-31.258948 5.384982-12.261053-6.152982-23.534035-15.409404-29.956491-24.61193-15.719298-53.265965-23.534035-81.246316-30.854737-67.368421-16.388491-136.492912-24.522105-205.428772-30.589754-130.829474-10.913684-262.422456-12.171228-393.521403-5.384983-81.111579 4.53614-162.312982 11.856842-242.256842 26.992281-37.726316 7.68-75.991579 15.813614-110.708772 32.965614-11.767018 6.426947-25.375439 14.77614-28.115088 28.968421-0.718596 13.563509 11.452632 22.860351 21.962105 29.013334 27.890526 15.539649 59.014737 24.571509 90.498246 29.372631 0.673684-24.656842-2.200702-49.62807 2.065965-74.060351 5.030175-24.342456 29.956491-39.653053 53.984561-38.220351 218.632982-1.841404 437.351298-0.359298 655.988772-0.943158 25.644912-1.527018 51.514386 16.388491 55.601404 42.397193 3.637895 29.062737-0.808421 58.390456 0.359298 87.583439zM1052.474386 810.037895c-13.204211 14.910877-34.312982 16.437895-52.902175 16.258245-206.690807-0.718596-413.377123 0.718596-620.018527-0.98807-21.512982-0.898246-45.630877 4.087018-64.673684-8.533333-15.539649-9.835789-23.62386-28.294737-22.995088-46.304562-0.017965-41.804351-0.013474-83.613193-0.008982-125.417543h13.49614c-0.022456 40.218947 0.008982 80.437895-0.058386 120.656842-0.179649 12.620351 2.245614 26.498246 12.216141 35.25614 8.982456 9.25193 22.45614 11.048421 34.762105 10.913684 206.731228-0.269474 413.462456-0.044912 620.193684-0.089824 17.830175-0.359298 35.880421 1.616842 53.535439-1.706667 11.362807-2.515088 18.324211-12.665263 26.359017-20.210526-14.097965 4.985263-28.694456 12.8-44.058947 8.66807-23.04-4.491228-39.567719-27.216842-38.220351-50.436491-0.089825-229.142456 0-458.24-0.044912-687.382456-0.179649-15.849544-1.217123-35.296561-17.201404-43.695158-20.030877-14.322526-51.065263 1.392281-52.232982 25.779649-3.14386 36.239719 0.673684 72.757895-2.070456 109.087438-198.103579 0.229053-396.211649 0.094316-594.31972 0.049404 0.628772 18.997895 1.347368 37.950877 1.212632 56.948772-0.094316 128.902737-0.031439 257.832421-0.053895 386.762105h-13.514105c0.03593-148.093754 0.112281-296.183018-0.175158-444.249825-25.105965 0.224561-50.256842 0.404211-75.362807-0.179649-1.077895-22.321404-0.853333-44.638316-0.808421-67.009122 0.673684-24.656842-2.200702-49.62807 2.065965-74.060351 5.030175-24.342456 29.956491-39.653053 53.984561-38.220351 218.632982-1.841404 437.351298-0.359298 655.988772-0.943158 25.644912-1.527018 51.514386 16.388491 55.601404 42.397193 3.637895 29.058246-0.808421 58.385965 0.359298 87.578947 0.18414 184.894877 0.049404 369.803228 0.049403 554.707088 27.890526 0.089825 55.781053-0.449123 83.671579 0.718596 1.032982 33.414737 0.179649 66.874386 0.943158 100.334036 0.224561 18.683509-0.763509 39.882105-15.719298 53.310877z m-113.178947-823.511579c-17.381053-2.380351-34.986667-0.848842-52.412632-1.122807-197.658947-0.044912-395.317895 0.179649-592.93193-0.134737-17.515789 0.359298-37.771228-2.78007-51.963509 10.105263-11.22807 9.296842-13.338947 24.701754-13.069473 38.4 0.134737 34.762105 0.224561 69.524211 0.179649 104.290807 218.902456 0.044912 437.849825 0.044912 656.797193 0 0.538947-31.797895-1.212632-63.685614 0.718596-95.438596 0.808421-20.704561 16.617544-39.392561 36.872983-43.69965 15.36-4.311579 30.315789 2.919298 44.552982 7.635088-8.533333-7.86414-16.527719-18.243368-28.743859-20.035368z m114.885614 682.93614c-23.444211 0-46.88393 0-70.377544-0.044912 0.588351 27.665965-0.943158 55.33193 0.494035 82.997895 0.628772 15.764211 12.710175 30.181053 28.384561 32.875789 19.577263 4.087018 39.832702-12.755088 40.286316-32.606316 2.649825-27.665965 0.58386-55.466667 1.212632-83.222456zM343.574456 622.488702h0.013474l0.008982 0.004491 0.004492-0.008982 48.20435-9.476492 41.445053 24.225685 0.004491 0.008982 0.008983-0.004491 0.017965 0.008982 0.008982-0.013473 48.19986-9.476492 41.449544 24.230176v0.008982l0.013473-0.004491 0.008983 0.008982 0.004491-0.008982 27.42793-5.259228-24.989193 11.506526-44.750597-16.82414-0.103298-0.224562-0.247017 0.094316-0.251509-0.094316-0.103299 0.224562-45.222175 17.003789-45.217684-17.003789-0.10779-0.224562-0.247017 0.094316-0.251509-0.094316-0.103298 0.224562L343.578947 658.418526l-51.788351-18.557754v11.645754l51.774878 18.809263 0.004491 0.013474 0.008982-0.004491 0.013474 0.004491 0.004491-0.013474 45.559018-17.125052 45.559017 17.125052v0.013474l0.013474-0.004491 0.013474 0.004491 0.004491-0.013474 45.559018-17.125052 45.554526 17.125052 0.004491 0.013474 0.013474-0.004491 0.013473 0.004491 0.008983-0.013474 70.278737-32.363789 4.670877-2.151298 2.061474-0.947649-4.904421-8.501895-5.771229 1.113824-66.910315 12.826948-41.171088-24.064-0.053895-0.238035-0.264982 0.053894-0.229053-0.134736-0.14821 0.206596-47.840562 9.404632-41.14414-24.046035-0.058386-0.238035-0.264983 0.049403-0.224561-0.130246-0.143719 0.202106-47.849544 9.409122-43.308912-23.156771-10.734035 8.039298 51.680561 26.826105zM778.603789 503.51607l-15.148912 15.117474 15.126456 15.153403a7.230877 7.230877 0 0 1 2.115369 5.133474c0 1.940211-0.763509 3.759158-2.133334 5.124491-2.735158 2.739649-7.509333 2.74414-10.257964 0l-15.121965-15.153403-15.153404 15.121965c-2.748632 2.735158-7.500351 2.74414-10.262456-0.013474a7.271298 7.271298 0 0 1 0.013474-10.257965l15.148912-15.126456-15.117474-15.148912c-1.369825-1.369825-2.124351-3.188772-2.124351-5.128983 0.004491-1.940211 0.759018-3.763649 2.137825-5.133473 1.369825-1.369825 3.188772-2.124351 5.124491-2.124351s3.754667 0.750035 5.137965 2.128842l15.121965 15.157894 15.148912-15.121964c2.735158-2.739649 7.531789-2.730667 10.257965 0.008982a7.266807 7.266807 0 0 1-0.013474 10.262456zM510.558316 503.51607l-15.153404 15.117474 15.126456 15.153403c1.365333 1.374316 2.11986 3.193263 2.115369 5.133474 0 1.940211-0.759018 3.759158-2.133333 5.124491-2.739649 2.739649-7.509333 2.74414-10.257965 0l-15.126457-15.153403-15.153403 15.121965c-2.74414 2.735158-7.49586 2.74414-10.262456-0.013474a7.275789 7.275789 0 0 1 0.013473-10.257965l15.148913-15.126456-15.117474-15.148912c-1.369825-1.369825-2.124351-3.188772-2.124351-5.128983 0-1.940211 0.759018-3.763649 2.133334-5.133473 1.369825-1.369825 3.188772-2.124351 5.128982-2.124351 1.931228 0 3.754667 0.750035 5.133474 2.128842l15.121965 15.157894 15.153403-15.121964c2.735158-2.739649 7.531789-2.730667 10.257965 0.008982a7.266807 7.266807 0 0 1-0.004491 10.262456zM214.047439 494.798596l-8.254878 8.236913 8.241404 8.254877a3.916351 3.916351 0 0 1 1.149754 2.798035 3.920842 3.920842 0 0 1-1.158737 2.793544 4.042105 4.042105 0 0 1-5.591578 0l-8.241404-8.254877-8.254877 8.241403a4.042105 4.042105 0 0 1-5.591579-0.004491 3.970246 3.970246 0 0 1 0.004491-5.591579l8.254877-8.241403-8.236912-8.254878a3.907368 3.907368 0 0 1-1.154246-2.793544c0-1.055439 0.413193-2.052491 1.163228-2.798035a3.934316 3.934316 0 0 1 5.591579 0l8.241404 8.259369 8.254877-8.241404a4.042105 4.042105 0 0 1 5.591579 0.004492 3.970246 3.970246 0 0 1-0.008982 5.591578zM1145.869474 189.372632l-18.018807 17.969403 17.987368 18.018807c1.621333 1.630316 2.52407 3.80407 2.519579 6.099088 0 2.312982-0.907228 4.477754-2.533053 6.094596-3.260632 3.260632-8.933053 3.265123-12.198175 0l-17.987368-18.023298-18.018807 17.987368c-3.265123 3.25614-8.915088 3.265123-12.202667-0.017964a8.650105 8.650105 0 0 1 0.013474-12.198176l18.018807-17.982877-17.978386-18.009825c-1.630316-1.625825-2.52407-3.799579-2.524071-6.099087s0.902737-4.473263 2.533053-6.099088c1.625825-1.625825 3.790596-2.528561 6.094597-2.528561 2.299509 0 4.464281 0.898246 6.099087 2.528561l17.987369 18.023298 18.014315-17.982877c3.251649-3.260632 8.955509-3.247158 12.198176 0.013474a8.650105 8.650105 0 0 1-0.004491 12.207158z"  horiz-adv-x="1271" />

    
    <glyph glyph-name="chatbubblesquare" unicode="&#58952;" d="M170.666667 810.666667a85.333333 85.333333 0 0 1-85.333334-85.333334v-512a85.333333 85.333333 0 0 1 85.333334-85.333333h128v-170.666667l170.666666 170.666667h384a85.333333 85.333333 0 0 1 85.333334 85.333333V725.333333a85.333333 85.333333 0 0 1-85.333334 85.333334H170.666667z"  horiz-adv-x="1024" />

    
    <glyph glyph-name="like_fill" unicode="&#59143;" d="M672 704a222.72 222.72 0 0 1-160-67.68A222.592 222.592 0 0 1 352 704c-123.52 0-224-101.184-224-225.6 0-52.256 18.144-103.2 52.928-145.536l285.952-293.984a62.528 62.528 0 0 1 90.208 0l287.808 296.032A227.136 227.136 0 0 1 896 478.4C896 602.816 795.52 704 672 704"  horiz-adv-x="1024" />

    
    <glyph glyph-name="like" unicode="&#59144;" d="M797.184 377.504l-284.384-294.016-284.16 292A162.752 162.752 0 0 0 192 478.4C192 567.488 263.808 640 352 640a159.36 159.36 0 0 0 133.28-72.16L512 527.36l26.72 40.48A159.488 159.488 0 0 0 672 640c88.224 0 160-72.512 160-161.6 0-37.536-12.992-74.08-34.816-100.896M672 704a222.72 222.72 0 0 1-160-67.712A222.624 222.624 0 0 1 352 704c-123.52 0-224-101.216-224-225.6 0-52.288 18.176-103.232 52.96-145.536l285.952-293.984a62.4 62.4 0 0 1 45.088-19.168c17.12 0 33.12 6.816 45.12 19.136l287.744 296.064A226.816 226.816 0 0 1 896 478.4C896 602.784 795.52 704 672 704"  horiz-adv-x="1024" />

    
    <glyph glyph-name="my-subject" unicode="&#58891;" d="M512-128C229.239467-128 0 101.23946699999999 0 384 0 666.760533 229.239467 896 512 896c282.760533 0 512-229.239467 512-512 0-282.760533-229.239467-512-512-512z m273.066667 682.666667h-94.173867l22.7328 84.855466a34.133333 34.133333 0 0 1-65.9456 17.646934L620.202667 554.666667h-134.109867l22.7328 84.855466a34.133333 34.133333 0 0 1-65.9456 17.646934L415.402667 554.666667H273.066667a34.133333 34.133333 0 0 1 0-68.266667h124.074666l-45.738666-170.666667H238.933333a34.133333 34.133333 0 0 1 0-68.266666h94.173867l-22.7328-84.855467a34.133333 34.133333 0 0 1 65.9456-17.646933L403.7632 247.46666700000003h134.144l-22.7328-84.855467a34.133333 34.133333 0 0 1 65.9456-17.646933L608.5632 247.46666700000003H750.933333a34.133333 34.133333 0 0 1 0 68.266666h-124.074666l45.738666 170.666667H785.066667a34.133333 34.133333 0 0 1 0 68.266667z m-363.008-238.933334l45.738666 170.666667h134.144l-45.738666-170.666667h-134.144z"  horiz-adv-x="1024" />

    
    <glyph glyph-name="star-grey" unicode="&#58956;" d="M557.688492 895.989769a81.286745 81.286745 0 0 1-72.823251-42.689491L358.842886 605.0687889999999l-290.176938-40.829384a79.054614 79.054614 0 0 1-64.08074-49.850909 70.126093 70.126093 0 0 1 18.694091-75.520408l212.517405-201.263748-49.292878-279.109291a71.893196 71.893196 0 0 1 33.016928-72.823251 86.774065 86.774065 0 0 1 85.378983-4.371255l252.881761 129.18454 252.88176-129.18454a87.89013 87.89013 0 0 1 38.969275-9.207538 84.63494 84.63494 0 0 1 46.316703 13.578793 71.893196 71.893196 0 0 1 33.016927 72.823251l-49.292877 279.109291 212.61041 201.263748a70.219099 70.219099 0 0 1 18.694091 75.520408 79.426636 79.426636 0 0 1-64.173746 49.850909l-290.083932 40.829384L630.604748 853.300278A81.193739 81.193739 0 0 1 557.688492 895.989769"  horiz-adv-x="1115" />

    
    <glyph glyph-name="setting" unicode="&#58885;" d="M512 384m-512 0a512 512 0 1 1 1024 0 512 512 0 1 1-1024 0ZM622.933333 401.066667h-34.133333l-42.666667 42.666666 8.533334 42.666667 128 119.466667 68.266666-68.266667-128-136.533333z m93.866667-170.666667s39.253333-93.866667-59.733333-76.8L409.6 392.533333s-136.533333-20.48-128 128l59.733333-51.2s78.506667-10.24 68.266667 59.733334l-59.733333 59.733333s59.4176 27.042133 110.933333-34.133333c27.306667-32.426667 17.066667-93.866667 17.066667-93.866667l238.933333-230.4z m-341.333333 17.066667l68.266666 76.8 25.6-25.6-76.8-68.266667c-25.6-63.146667-93.866667-68.266667-93.866666-68.266667 46.08 90.453333 76.8 85.333333 76.8 85.333334z"  horiz-adv-x="1024" />

    
    <glyph glyph-name="chat" unicode="&#58888;" d="M672 79.00800000000004q12 4.992 26.016 4.992h80.992q64 0.992 128.992 3.008h0.992q28.992 0 49.504 20.512t20.512 49.504V782.016q0 28.992-20 50.016h-0.992q-20 20-48.992 20.992H114.016q-28.992 0-50.016-20.992-20-20.992-20-50.016v-624.992q0-28.992 20-50.016 20.992-20 50.016-20h0.992q56.992-4 122.016-4h3.008q51.008 0 84.992-2.016 12.992 0 23.008-4 14.016-4.992 23.008-16l124-138.016q6.016-4.992 12.992-4.992h0.992q7.008 0 12.992 4.992l0.992 0.992 128 140q8.992 10.016 20.992 15.008zM250.016 508q-18.016 0-30.496-12.512t-12.512-30.496 12.512-31.008 30.496-12.992 31.008 12.992 12.992 31.008-12.992 30.496-31.008 12.512z m260.992 0q-18.016 0-30.496-12.512t-12.512-30.496 12.512-31.008 30.496-12.992 31.008 12.992 12.992 31.008-12.992 30.496-31.008 12.512z m260.992 0q-18.016 0-30.496-12.512t-12.512-30.496 12.512-31.008 30.496-12.992 31.008 12.992 12.992 31.008-12.992 30.496-31.008 12.512zM696.992 40q-4.992 0-8.992-0.992h0.992q-4.992-2.016-8-7.008l-126.016-136.992q-2.016-3.008-4-4.992-18.016-16-42.016-16-24.992 0-43.008 16v0.992q-11.008 10.016-16.992 24l-111.008 118.016q-3.008 3.008-7.008 4-3.008 0.992-8.992 0.992h0.992q-36.992 2.016-79.008 2.016h-8q-64 0-128 3.008-40.992 0-75.008 34.016-32.992 32.992-32.992 80V782.048q0 47.008 32.992 80l0.992 0.992Q66.912 896.032 113.92 896.032h795.008q47.008 0 80-32.992 34.016-34.016 34.016-80.992v-624.992q0-47.008-33.504-80.512t-80.512-33.504q-75.008-0.992-128.992-2.016-63.008-0.992-83.008-0.992z"  horiz-adv-x="1024" />

    
    <glyph glyph-name="check-dot" unicode="&#58910;" d="M512-54.847999999999956A438.848 438.848 0 1 1 512 822.848a438.848 438.848 0 0 1 0-877.696zM512-128A512 512 0 1 0 512 896a512 512 0 0 0 0-1024z m0 292.544A219.456 219.456 0 1 1 512 603.52a219.456 219.456 0 0 1 0-438.912z"  horiz-adv-x="1024" />

    
    <glyph glyph-name="quotes" unicode="&#58882;" d="M1134.557 83.00199999999995c17.527 19.084 31.463 41.616 41.748 67.523 10.292 25.97 15.44 52.296 15.44 78.972 0 54.934-15.465 101.661-46.389 140.207-30.927 38.536-71.185 61.576-120.846 69.209l-17.206 1.117-14.898 2.331c-22.884 3.043-34.343 11.842-34.343 26.325 0 15.264 15.3 39.308 45.845 72.087 32.092 35.123 82.902 70.576 152.395 106.423 29.047 15.242 43.567 34.351 43.567 57.227 0 14.506-4.958 26.528-14.864 36.074-9.904 9.523-22.509 14.291-37.778 14.291-38.137 0-90.775-22.152-157.898-66.381-79.314-51.904-142.614-114.997-189.923-189.402-47.308-74.41-70.962-147.803-70.961-220.309 0-34.324 6.505-68.447 19.463-102.432 12.945-33.918 30.505-62.704 52.609-86.399 46.535-51.1 102.585-76.652 168.144-76.653 67.112 0 122.432 23.267 165.891 69.79v0zM588.05 83.00199999999995c17.53 19.084 31.398 41.796 41.685 68.106 10.296 26.367 15.405 52.46 15.405 78.39 0 54.934-15.22 101.849-45.636 140.777-30.412 38.918-70.357 61.779-119.82 68.64l-18.254 1.117-13.707 2.332c-22.797 3.043-34.235 11.842-34.235 26.325 0 15.264 14.861 39.308 44.539 72.088 31.215 33.574 81.826 69.067 151.835 106.422 28.96 15.242 43.4 34.351 43.4 57.227 0 14.506-4.913 26.526-14.825 36.075-9.907 9.524-22.485 14.291-37.722 14.291-38.037 0-90.578-22.151-157.603-66.381-79.179-51.902-142.174-114.997-189.006-189.402-46.794-74.408-70.232-147.803-70.233-220.309 0-34.324 6.47-68.447 19.43-102.431 12.958-33.918 30.442-62.704 52.516-86.399 46.415-51.1 101.985-76.653 166.685-76.653 67.754 0 122.938 23.268 165.541 69.79v0z"  horiz-adv-x="1403" />

    
    <glyph glyph-name="circle-empty" unicode="&#58987;" d="M512 99.85551534000001a279.272727 279.272727 0 1 1 0 558.545454 279.272727 279.272727 0 0 1 0-558.545454z m0-186.181818a465.454545 465.454545 0 1 0 0 930.909091 465.454545 465.454545 0 0 0 0-930.909091z"  horiz-adv-x="1024" />

    
    <glyph glyph-name="my-setting" unicode="&#58893;" d="M549.6 475.232c-49.857 21.223-108.609-2.236-129.13-52.88-21.311-49.918 2.147-107.908 52.855-129.196 50.642-20.458 108.549 2.874 129.921 52.941 21.226 50.562-3.023 107.761-53.646 129.134zM511.453 861.861c-263.632 0-477.348-213.716-477.348-477.349s213.716-477.349 477.348-477.349c263.633 0 477.35 213.715 477.35 477.348s-213.717 477.35-477.35 477.35zM715.476 353.379l72.721-44.788-27.996-65.313-83.598 19.076c-12.493-16.906-26.459-30.786-42.594-42.535l19.074-82.958-66.078-27.21-45.469 72.019c-19.822-3.024-40.343-3.024-60.885 0l-46.322-71.292-65.995 27.12 19.756 82.278c-16.817 12.474-31.484 27.143-43.214 43.236l-82.981-18.287-27.183 65.246 71.889 44.813c-2.81 19.756-2.81 40.404 0 60.906l-71.143 45.513 27.866 65.289 82.192-19.053c12.432 16.201 27.165 30.806 44.067 42.535l-18.373 83.002 66.015 26.398 44.83-71.952c19.737 2.938 40.364 2.938 60.884 0l44.706 71.273 66.182-27.227-19.031-82.832c16.818-12.539 31.484-26.46 43.216-43.3l83.023 19.756 27.165-65.377-72.721-45.385c2.938-20.586 2.938-40.451 0-60.949z"  horiz-adv-x="1024" />

    
    <glyph glyph-name="more-text" unicode="&#58883;" d="M288 439.136A63.264 63.264 0 0 1 256 448a64 64 0 1 1 0-128c11.712 0 22.56 3.392 32 8.896 19.04 11.072 32 31.488 32 55.104 0 23.648-12.96 44.064-32 55.136m256 0A63.264 63.264 0 0 1 512 448c-11.712 0-22.56-3.36-32-8.864-19.04-11.072-32-31.488-32-55.136 0-23.616 12.96-44.032 32-55.104 9.44-5.504 20.288-8.896 32-8.896s22.56 3.392 32 8.896c19.04 11.072 32 31.488 32 55.104 0 23.648-12.96 44.064-32 55.136M768 448c-11.712 0-22.56-3.392-32-8.864-19.04-11.104-32-31.52-32-55.136 0-23.616 12.96-44.032 32-55.136 9.44-5.472 20.288-8.864 32-8.864a64 64 0 1 1 0 128"  horiz-adv-x="1024" />

    
    <glyph glyph-name="fl-renyuan" unicode="&#58918;" d="M512.0181274414062 755.2763671875c-125.93957519531247 0-228.48156738281247-102.50326538085938-228.48156738281247-228.48074340820312 0-125.90167236328126 102.46701049804688-228.44448852539062 228.48156738281247-228.44448852539062 125.97665405273438 0 228.517822265625 102.54199218749999 228.517822265625 228.44448852539062 0 125.97747802734375-102.54116821289061 228.48074340820312-228.517822265625 228.48074340820312zM688.11962890625 303.5644226074219c-48.68206787109375-38.48208618164063-109.30682373046875-62.32461547851563-176.10150146484375-62.32461547851563-66.79550170898438 0-127.38153076171872 23.915863037109375-176.17565917968753 62.32461547851563C243.4666748046875 244.7515869140626 179.14804077148432 141.46966552734375 170.31338500976562 21.85162353515625c32.343475341796875-4.396728515625001 89.89892578124999-9.127990722656248 172.03436279296875-9.127990722656248h339.1916198730469c82.17333984375 0 139.7650451660156 4.731262207031249 172.14724731445312 9.127990722656248-8.762145996093748 119.69384765625-73.07995605468749 222.89996337890622-165.5669860839844 281.71279907226557z"  horiz-adv-x="1024" />

    
    <glyph glyph-name="authentication-label" unicode="&#59119;" d="M995.5072 527.0016L844.5952 765.696c-12.3392 19.7376-39.552 25.9584-61.824 13.5936L33.28 305.58720000000005a46.6688 46.6688 0 0 1-13.6192-61.8496l149.6832-236.2368a46.6688 46.6688 0 0 1 61.824-13.5936l749.4912 474.9312c20.992 11.1616 27.2128 38.3488 14.848 58.1632z m-30.9504-34.6624L215.04 17.45920000000001c-6.144-4.9408-14.848-1.28-19.7376 4.8896l-149.6576 236.2624c-4.9408 6.1696-2.5088 16.0512 3.6864 19.7632L798.848 753.3312c6.1952 4.9408 14.8224 1.2288 19.7376-4.9664l150.9376-236.2368c4.9152-6.1696 1.2288-16.0768-4.9664-19.7888zM311.5264 671.6672l-2.4576 32.1536 27.2128-17.3056 29.696 13.5936-7.424-30.8992 21.0176-24.7552-33.408-2.4832-14.848-27.2128-12.3392 29.7216-30.9504 6.1696c-1.2288-1.2288 23.5008 21.0176 23.5008 21.0176z m169.4464 59.4176l13.6448 29.6448 14.8224-27.2384 32.1536-2.432-21.0432-23.5264 6.1952-32.1792-29.696 13.6192-27.2128-17.3312 4.9152 32.1536-24.704 21.0432c-1.2288 0.0256 30.9248 6.2464 30.9248 6.2464z m222.6176-633.2672l2.4832-32.1792-27.2128 17.3056-29.6448-12.3648 7.3984 30.9504-20.9664 24.7296 32.128 2.5344 17.3568 27.2128 12.3392-29.6704 30.9248-6.1952-24.8064-22.3232z m-169.4208-58.1376l-14.848-29.6704-14.848 27.2128-32.128 2.4832 23.4752 23.5008-6.1952 30.9248 29.696-13.568 27.2128 14.7968-4.9152-32.1536 23.4752-20.992c-0.0256 3.6096-30.9248-2.5344-30.9248-2.5344zM196.5312 538.1120000000001l-18.5856 25.984 32.1792-1.2288 19.7632 25.984 8.6528-30.9504 30.9504-11.136-25.984-18.56v-32.1536l-24.704 19.7888-30.9248-8.6784c-2.5088 0.0256 8.6528 30.9504 8.6528 30.9504zM290.5344 728.576c123.6736 79.1552 275.7632 80.4096 398.2592 18.56l29.6448 18.5856c-35.84 19.7376-75.4432 35.84-116.2496 44.4672a440.1664 440.1664 0 0 1-165.7344 4.9664 406.8096 406.8096 0 0 1-160.7936-61.824c-49.4848-32.1792-91.4944-70.5024-123.6736-118.784a438.4256 438.4256 0 0 1-66.7648-152.064c-8.6784-42.112-12.3904-82.8928-8.6784-123.7248l29.696 18.6112C98.7904 514.6112 165.6064 650.6496 290.5344 728.576zM722.176 48.33280000000002c-123.6992-79.1552-274.5856-80.384-397.056-18.56l-29.6704-18.5856c35.8656-19.7376 75.4432-35.84 116.2752-44.4672 54.4256-12.3648 111.36-13.6192 165.7344-4.9664 56.9088 8.6528 111.36 30.9504 160.768 61.824 49.536 30.976 91.52 70.528 123.6992 118.784 32.1536 47.0016 53.1712 97.664 65.5872 152.1152 8.6528 42.0864 12.3136 81.6128 8.6528 123.6736l-27.2128-18.5856c3.6352-137.2672-63.104-273.3056-186.7776-351.232zM380.8 587.5712a241.3056 241.3056 0 0 0 111.3344 35.84l45.7728 29.7216c-60.6464 7.3728-120.0128-6.2208-173.2096-39.6288-51.9168-32.128-89.0368-81.6128-110.08-138.496l45.7984 29.696c18.56 32.2048 44.544 61.8752 80.384 82.8672z m252.3392-398.2336a241.152 241.152 0 0 0-111.3856-35.8656l-45.7472-29.696c60.5696-7.3984 119.9872 6.1952 173.1072 39.6032 51.9424 32.128 89.0624 81.6128 110.1056 138.496l-45.7472-29.696c-18.5344-30.8992-46.9504-61.824-80.3328-82.8416zM398.5152 304.3328c12.3136 2.0224 22.7584 4.2496 31.3088 6.6304 5.888-14.848 10.2144-26.3168 12.928-34.3296 2.688-8.0128 2.2016-15.616-1.536-22.784s-10.5984-13.9776-20.6336-20.4288l-71.3984-45.8752c-23.4752-15.0784-43.1104-10.3168-58.88 14.2592l-45.2352 70.4256 24.3456 15.616 10.24-15.9744 79.616 51.1488-22.2976 34.7136-108.3904-69.632-14.4896 22.528 132.9152 85.376 51.2512-79.7952-104.1152-66.8672 19.0208-29.5936c7.1168-11.1104 15.872-13.2864 26.2912-6.5792l61.3632 39.424c5.0944 3.2768 8.704 6.7328 10.8544 10.3168 2.1248 3.6352 2.2528 7.7312 0.4096 12.288s-6.3744 14.336-13.568 29.1328zM392.4992 435.9424c20.7616-4.3264 36.0704-7.808 45.9776-10.4448l-8.704-27.6736a1125.6064 1125.6064 0 0 1-45.3376 13.4144l8.064 24.704z m92.3136-71.7312c5.6576-5.376 12.1856-10.624 19.6864-15.744a593.408 593.408 0 0 1-12.3136-72.0128l-22.0416 7.1936a26.2656 26.2656 0 0 1-3.9168 19.1232l-35.3024 54.9376-16.7936-10.7776-13.7472 21.4016 38.656 24.832 37.8368-58.9056 7.936 29.952z m-25.4976 113.5104l24.5248 15.744c8.6016-13.7728 16.2048-26.5728 22.8352-38.4256 35.8912-46.2592 73.088-68.5824 111.5392-66.944-0.3072-13.5168-0.384-25.344-0.2048-35.4816-33.9968 4.6848-61.8752 18.2272-83.6608 40.6528 8.8576-30.7456 8.6528-62.2336-0.5376-94.464a230.7584 230.7584 0 0 1-30.7712 13.9264c9.2928 28.288 11.1616 52.4288 5.5808 72.4224-5.6064 19.968-22.016 50.816-49.3056 92.5696zM558.592 543.1296c12.1344-4.8896 25.2928-10.6752 39.5264-17.3824-3.4048-6.0416-7.5008-14.2592-12.288-24.6272a762.7008 762.7008 0 0 1-38.016 19.0208l10.7776 22.9888z m93.7728-86.6304c3.456-4.4288 9.6-11.1104 18.432-19.9936a603.5712 603.5712 0 0 1-17.408-49.9968l-21.8368 11.5456a23.3984 23.3984 0 0 1-3.6608 15.104l-33.6128 52.3008-13.184-8.448-13.7216 21.376 35.5328 22.8352 42.1632-65.6128 7.296 20.8896z m14.9248-31.5392l13.4656 8.6528-52.736 82.0992 22.1952 14.2848 52.736-82.0992 17.7664 11.4176-64.4864 100.352-48.1792-30.976-13.952 21.7088 109.2352 70.1952 13.952-21.7088-38.8352-24.96 23.8848-37.1968 34.8672 22.4 13.9008-21.5296-34.8672-22.4 26.7264-41.6256 40.8064 26.2144 14.1824-22.0416-116.48-74.8288-14.1824 22.0416z"  horiz-adv-x="1024" />

    
    <glyph glyph-name="systemTask2" unicode="&#58896;" d="M542.5513176177778 609.681824274963c20.50738797985185 0 38.204429653333335-15.288899508148148 43.041077475555554-37.1760047597037l2.917262222222222-12.610923785481482a332.4559226500741 332.4559226500741 0 0 0 4.882469622518517-56.56332788622222c0-46.49291684977777-4.429351291259259-82.32484378548149-13.547706292148149-109.5373534245926l-23.847221475555557-71.19036962133332 75.08005379792593-0.3156553576296296c72.4631721908148-0.305473005037037 182.6725645274074-0.8247754145185185 193.29282503111114-1.02842368 18.985116558222224-0.8095018856296295 26.46410186903704-7.290610574222224 32.92993824237037-18.145067614814813 6.6032981333333325-11.114108245333332 7.728454162962963-22.218034138074074 7.387342923851851-30.02285715911111-4.923199032888888-30.547251958518515-65.71732112118518-304.6681052349629-75.92010274133332-345.9578071419259-3.762403555555555-6.516746922666666-8.838337877333334-12.005070165333333-14.76450470874074-15.95584845748148-10.218055149037037-6.766215774814815-10.890095274666667-6.766215774814815-15.533277183999997-6.766215774814815l-439.8244204088889-0.025455881481481483 0.6109447964444445 398.9929267958518c106.31461819733333 33.250683562666666 183.66025879703705 131.62810694162962 186.72007516918518 245.7119099259259l0.08146003437037036 2.9834487277037036-0.1629188551111111 1.9753885392592594 0.025455881481481483 1.1658866536296297 0.07636885807407406 4.663547828148149c0.010182352592592592 23.98977441185185 11.45012830814815 49.802202074074074 36.554877610666665 49.802202074074074m-364.64763426133334-318.72493279762966v-386.77911718874066h-72.92647166103704v386.77911718874066h72.92647166103704m364.64763426133334 372.99721678696295c-54.486114607407416 0-90.81697924740739-47.22605109096296-90.81697924740739-104.06939488711112 0-3.2023705220740744-0.2545600284444444-6.267278070518518 0-9.332185618962964-2.85107693037037-106.29425349214814-86.80001566340741-191.7450989416296-186.67425458251853-203.46506080711112l-0.763681298962963-496.9681460337777h9.74966450251852c-0.01527352888888889 0.01527352888888889 0.10182473955555556 0.025455881481481483 0.4531171176296296 0.025455881481481483 0.36656712059259255 0 0.4785742127407407-0.010182352592592592 0.4632994702222222-0.025455881481481483l483.51208212859257 0.025455881481481483h0.305473005037037c18.251982317037033 0 28.556588676740734 4.780644882962963 45.179384869925926 15.782747249777776 15.843841365333333 10.564257564444443 27.828546825481478 25.013108129185184 35.638459809185186 41.345704846222226 2.1637632758518515 3.2787381665185182 77.22345236859258 340.51021452325926 79.1428379685926 360.5237547614815 1.5019067164444444 21.342346960592593-3.131092840296296 43.417826948740746-14.77977823762963 63.02916304592592-18.36908058548148 30.832359044740734-45.05210546251852 43.2905463277037-77.33545946074075 44.654990070518515-1.675007924148148 0.2596512047407407-195.319126546963 1.0742454802962962-195.319126546963 1.0742454802962962 12.81966322725926 38.28079729777778 16.35805381214815 83.90311814637036 16.35805259851852 126.77618559051851a386.8300301653333 386.8300301653333 0 0 1-8.599051377777778 80.94003412385185l-0.4785729991111111-0.050911762962962966c-10.095866917925925 45.673232611555555-49.2218043354074 79.73341805985184-96.0354677191111 79.73341805985184z m-348.5390505149629-318.73002397392594h-105.1487315437037c-21.087785718518518 0-38.15860906666667-17.61558163911111-38.15860785303703-39.32958568296296v-416.6594214115555c0-21.708914081185185 17.07082213451852-39.329586896592595 38.15860785303703-39.329586896592595h105.1487315437037c21.087785718518518 0 38.15860906666667 17.61558163911111 38.15860906666667 39.329586896592595v416.65433023525924c0 21.71909643377778-17.065730958222222 39.334678072888885-38.15860906666667 39.33467685925926z m80.96039882903703-495.10476337303703h-0.9164165878518519c0.010182352592592592-0.01527352888888889 0.09164117333333333-0.03054705777777778 0.19346591288888887-0.050911762962962966-0.07636764444444444-0.03054705777777778-0.07127646814814814-0.04072941037037037 0-0.04072941037037037a3.4620217268148146 3.4620217268148146 0 0 1 0.2596512047407407 0.01527352888888889 4.072966523259259 4.072966523259259 0 0 1 0.27492594725925923-0.01527352888888889c0.08145882074074073 0 0.09164117333333333 0.01527352888888889 0 0.04072941037037037a0.7942283567407407 0.7942283567407407 0 0 1 0.18837352296296297 0.050911762962962966zM1060.2763204835555 773.7765687751111a15.986395515259257 15.986395515259257 0 0 1-11.439945955555556 10.599897012148148l-110.733787136 26.835760165925926-59.74024131318519 97.01807081244445a15.996577867851851 15.996577867851851 0 0 1-27.22778438162963 0l-59.74024131318519-97.01807081244445-110.733787136-26.840851342222223a15.986395515259257 15.986395515259257 0 0 1-8.41576781748148-25.89897887288889l73.80725122844444-86.80001566340741-8.695784941037036-113.60522877155553a16.006760220444445 16.006760220444445 0 0 1 22.034751791407405-16.006759006814814l105.35747098548148 43.377096324740734 105.35747098548148-43.377096324740734a16.01694257303704 16.01694257303704 0 0 1 15.482365421037034 1.8531990945185186 15.976213162666665 15.976213162666665 0 0 1 6.542202804148148 14.153559912296295L983.439799940741 671.6723800746665l73.80725122844444 86.80001566340741a15.986395515259257 15.986395515259257 0 0 1 3.02926931437037 15.304173037037037z"  horiz-adv-x="1107" />

    
    <glyph glyph-name="match-maker-price" unicode="&#58900;" d="M448 340.79999999999995h-148.8c-35.2 0-64 28.8-64 64s28.8 64 64 64h78.4l-134.4 198.4c-19.2 28.8-12.8 68.8 17.6 89.6s68.8 12.8 89.6-17.6l164.8-244.8L697.6 742.4c20.8 28.8 60.8 33.6 89.6 12.8 28.8-20.8 33.6-60.8 12.8-89.6l-145.6-196.8h86.4c35.2 0 64-28.8 64-64s-28.8-64-64-64H576V256h164.8c35.2 0 64-28.8 64-64s-28.8-64-64-64H576v-112c0-35.2-28.8-64-64-64s-64 28.8-64 64v112h-148.8c-35.2 0-64 28.8-64 64s28.8 64 64 64H448v84.8z"  horiz-adv-x="1024" />

    
    <glyph glyph-name="acquaintancesTask" unicode="&#58892;" d="M54.727327-127.86347999999998a26.075259 26.075259 0 0 0-26.041129 26.041129c0 282.288571 229.660234 511.948805 511.948805 511.948805a217.168683 217.168683 0 0 1 216.895644 216.929774 217.168683 217.168683 0 0 1-216.895644 216.895643 217.168683 217.168683 0 0 1-216.929774-216.895643c0-67.235943 30.375629-129.523048 83.379396-170.956771a25.972869 25.972869 0 1 0-32.047995-40.990035 267.339666 267.339666 0 0 0-103.379529 211.946806c0 148.328634 120.683398 268.977902 269.012032 268.977902s268.977902-120.649268 268.977902-268.977902-120.649268-268.977902-268.977902-268.977902c-253.585308 0-459.900677-206.315368-459.900677-459.900677a26.075259 26.075259 0 0 0-26.041129-26.041129zM758.691064-127.86347999999998c-10.238976 0-19.829484 3.993201-27.065027 11.262873l-169.728093 169.728094a134.847315 134.847315 0 0 0-39.795488 96.007466c0 36.348365 14.129787 70.512415 39.829617 96.178116 51.36553 51.36553 140.990701 51.3314 192.185582 0l4.573409-4.60754 4.607539 4.60754c51.194881 51.3314 140.820051 51.36553 192.185582 0a135.017965 135.017965 0 0 0 39.829617-96.178116 134.744926 134.744926 0 0 0-39.829617-96.041596l-169.693964-169.762223a38.225511 38.225511 0 0 0-27.099157-11.194614z m-100.683265 360.923907c-22.355098 0-43.447389-8.70313-59.283671-24.573542a83.277006 83.277006 0 0 1-24.573543-59.317802c0-22.389228 8.70313-43.413259 24.573543-59.249542l160.001066-160.001066 159.932807 159.966936a83.277006 83.277006 0 0 1 24.607672 59.283672c0 22.423358-8.73726 43.447389-24.573542 59.317802-31.672566 31.774956-86.928907 31.706696-118.601473 0l-14.300437-14.300437a39.044629 39.044629 0 0 0-54.164184 0.06826l-14.266306 14.198047a83.208746 83.208746 0 0 1-59.351932 24.607672z"  horiz-adv-x="1024" />

    
    </font>
</defs>
</svg>
